<svg width="345" height="367" viewBox="0 0 345 367" fill="none" xmlns="http://www.w3.org/2000/svg">
<g clip-path="url(#clip0_32933_1118)">
<rect x="0.5" width="344" height="367" rx="16" fill="#94BAE9"/>
<g clip-path="url(#clip1_32933_1118)">
<path d="M108.422 87.5894H105.998C104.656 87.5894 103.568 88.6773 103.568 90.0194V102.454C103.568 103.796 104.656 104.884 105.998 104.884H108.422C109.764 104.884 110.852 103.796 110.852 102.454V90.0194C110.852 88.6773 109.764 87.5894 108.422 87.5894Z" fill="#0043A9"/>
<path d="M208.458 44.7546V42.331C208.458 40.989 207.371 39.901 206.028 39.901H189.102C187.76 39.901 186.672 40.989 186.672 42.331V44.7546C186.672 46.0966 187.76 47.1846 189.102 47.1846H206.028C207.371 47.1846 208.458 46.0966 208.458 44.7546Z" fill="#0043A9"/>
<path d="M223.891 100.585H226.314C227.656 100.585 228.744 99.4971 228.744 98.1551V88.3316C228.744 86.9896 227.656 85.9016 226.314 85.9016H223.891C222.549 85.9016 221.461 86.9896 221.461 88.3316V98.1551C221.461 99.4971 222.549 100.585 223.891 100.585Z" fill="#0043A9"/>
<path d="M108.422 109.892H105.998C104.656 109.892 103.568 110.98 103.568 112.322V146.271C103.568 147.613 104.656 148.701 105.998 148.701H108.422C109.764 148.701 110.852 147.613 110.852 146.271V112.322C110.852 110.98 109.764 109.892 108.422 109.892Z" fill="#0043A9"/>
<path d="M209.411 43.1008H123.799C114.59 43.1008 107.125 50.566 107.125 59.7748V270.255C107.125 279.464 114.59 286.929 123.799 286.929H209.411C218.62 286.929 226.085 279.464 226.085 270.255V59.7748C226.085 50.566 218.62 43.1008 209.411 43.1008Z" fill="#F6FAFE" stroke="#0043A9" stroke-width="0.521727" stroke-miterlimit="10"/>
<path d="M207.277 54.7644H124.593C118.693 54.7644 113.91 59.5476 113.91 65.4479V268.986C113.91 274.886 118.693 279.669 124.593 279.669H207.277C213.178 279.669 217.961 274.886 217.961 268.986V65.4479C217.961 59.5476 213.178 54.7644 207.277 54.7644Z" fill="#F6FAFE"/>
<path d="M176.922 51.5353C177.814 51.5353 178.538 50.812 178.538 49.9197C178.538 49.0273 177.814 48.304 176.922 48.304C176.03 48.304 175.306 49.0273 175.306 49.9197C175.306 50.812 176.03 51.5353 176.922 51.5353Z" fill="#0043A9"/>
<path d="M172.398 51.5353C173.29 51.5353 174.014 50.812 174.014 49.9197C174.014 49.0273 173.29 48.304 172.398 48.304C171.506 48.304 170.782 49.0273 170.782 49.9197C170.782 50.812 171.506 51.5353 172.398 51.5353Z" fill="#0043A9"/>
<path d="M153.167 47.5326H178.698C180.131 47.5326 181.245 48.627 181.245 49.9191C181.245 51.2112 180.131 52.3056 178.698 52.3056H153.167C151.734 52.3056 150.62 51.2112 150.62 49.9191C150.62 48.627 151.734 47.5326 153.167 47.5326Z" stroke="#0043A9" stroke-width="1.04345"/>
<path d="M137.27 114.246C133.158 117.861 134.798 123.327 132.45 125.991C128.372 129.261 126.277 126.355 121.484 132.669C116.691 138.983 121.484 149.033 121.484 152.164C121.484 155.294 123.091 155.33 121.08 163.303C119.069 171.277 124.664 173.535 124.293 180.316C123.922 187.097 115.148 197.981 117.867 206.699C119.454 211.79 203.514 213.758 211.547 204.883C217.355 198.465 207.345 185.038 205.862 180.316C204.378 175.594 205.614 171.537 205.862 165.241C206.109 158.944 205.895 153.496 204.041 149.137C202.187 144.777 203.547 140.418 204.041 132.669C204.536 124.92 196.626 123.103 193.66 121.771C190.694 120.439 190.506 112.524 184.11 110.268C174.841 106.999 173.976 110.977 164.707 107.707C155.437 104.438 150.37 109.887 148.517 111.582C146.663 113.277 141.382 110.631 137.27 114.246Z" fill="#0043A9"/>
<mask id="mask0_32933_1118" style="mask-type:alpha" maskUnits="userSpaceOnUse" x="113" y="54" width="105" height="226">
<path d="M207.276 54.7671H124.592C118.691 54.7671 113.908 59.5503 113.908 65.4506V268.988C113.908 274.889 118.691 279.672 124.592 279.672H207.276C213.176 279.672 217.959 274.889 217.959 268.988V65.4506C217.959 59.5503 213.176 54.7671 207.276 54.7671Z" fill="#0043A9"/>
</mask>
<g mask="url(#mask0_32933_1118)">
<path fill-rule="evenodd" clip-rule="evenodd" d="M76.0888 328.888C103.699 335.461 103.698 335.466 103.697 335.469L103.697 335.469L103.726 335.349C103.756 335.228 103.806 335.024 103.876 334.744C104.016 334.183 104.236 333.317 104.534 332.189C104.887 330.849 105.348 329.147 105.91 327.155V353.702H227.004V331.804C228.674 331.501 234.427 330.465 254.256 326.903C282.191 321.885 282.19 321.879 282.189 321.874L282.186 321.861L282.181 321.829L282.165 321.741C282.158 321.705 282.15 321.663 282.141 321.616C282.133 321.571 282.124 321.522 282.114 321.468C282.073 321.244 282.015 320.936 281.941 320.55C281.793 319.777 281.579 318.69 281.3 317.333C280.742 314.623 279.918 310.813 278.823 306.265C276.654 297.253 273.334 284.961 268.792 272.436C264.374 260.254 258.207 246.166 249.781 234.604C241.967 223.882 227.432 208.941 205.372 208.941H130.68C108.82 208.941 93.9633 223.821 85.8857 234.24C76.9873 245.718 70.0514 259.813 64.8932 272.179C59.6057 284.854 55.5339 297.319 52.8057 306.481C51.4304 311.1 50.3704 314.968 49.6455 317.718C49.2825 319.094 49.0023 320.195 48.8072 320.976C48.7096 321.366 48.6332 321.676 48.5784 321.901L48.5444 322.041L48.5122 322.174L48.4913 322.261L48.4839 322.292L48.481 322.304C48.4797 322.31 48.4785 322.315 76.0888 328.888Z" fill="#F7D64D"/>
</g>
<path d="M179.958 204.245V189.636C179.958 181.28 173.184 174.506 164.828 174.506C156.472 174.506 149.698 181.28 149.698 189.636V204.245C149.698 212.601 156.472 219.375 164.828 219.375C173.184 219.375 179.958 212.601 179.958 204.245Z" fill="white"/>
<path d="M180.372 190.073C180.372 195.268 173.501 205.174 165.024 205.174C156.547 205.174 149.676 195.268 149.676 190.073C149.676 184.878 156.547 180.666 165.024 180.666C173.501 180.666 180.372 184.878 180.372 190.073Z" fill="#D4E5F8"/>
<path d="M139.736 154.037C140.294 156.119 140.167 158.152 139.534 159.75C138.902 161.348 137.782 162.478 136.361 162.859C134.94 163.24 133.405 162.821 132.058 161.753C130.712 160.685 129.585 158.989 129.027 156.907C128.469 154.825 128.597 152.792 129.229 151.194C129.862 149.596 130.981 148.466 132.402 148.085C133.824 147.704 135.358 148.123 136.705 149.191C138.052 150.259 139.178 151.956 139.736 154.037Z" fill="white" stroke="#0043A9" stroke-width="1.04345"/>
<path d="M133.851 159.714C135.436 159.289 136.262 157.232 135.696 155.119C135.129 153.006 133.386 151.638 131.801 152.062" stroke="#0043A9" stroke-width="0.521727"/>
<path d="M190.346 154.037C189.789 156.119 189.916 158.152 190.548 159.75C191.181 161.348 192.3 162.478 193.722 162.859C195.143 163.24 196.678 162.821 198.024 161.753C199.371 160.685 200.498 158.989 201.055 156.907C201.613 154.825 201.486 152.792 200.854 151.194C200.221 149.596 199.102 148.466 197.68 148.085C196.259 147.704 194.724 148.123 193.378 149.191C192.031 150.259 190.904 151.956 190.346 154.037Z" fill="white" stroke="#0043A9" stroke-width="1.04345"/>
<path d="M196.234 159.714C194.649 159.289 193.823 157.232 194.39 155.119C194.956 153.006 196.699 151.638 198.284 152.062" stroke="#0043A9" stroke-width="0.521727"/>
<mask id="path-20-inside-1_32933_1118" fill="white">
<path fill-rule="evenodd" clip-rule="evenodd" d="M142.839 116.073C140.287 116.073 138.218 118.141 138.218 120.693V171.74C138.218 172.388 138.352 173.006 138.593 173.566C141.178 186.643 156.52 197.835 165.325 197.835C174.964 197.835 192.433 184.426 192.433 169.813C192.433 168.824 192.377 167.848 192.269 166.888V120.693C192.269 118.141 190.2 116.073 187.648 116.073H142.839Z"/>
</mask>
<path fill-rule="evenodd" clip-rule="evenodd" d="M142.839 116.073C140.287 116.073 138.218 118.141 138.218 120.693V171.74C138.218 172.388 138.352 173.006 138.593 173.566C141.178 186.643 156.52 197.835 165.325 197.835C174.964 197.835 192.433 184.426 192.433 169.813C192.433 168.824 192.377 167.848 192.269 166.888V120.693C192.269 118.141 190.2 116.073 187.648 116.073H142.839Z" fill="white"/>
<path d="M138.593 173.566L139.105 173.465L139.094 173.41L139.072 173.36L138.593 173.566ZM192.269 166.888H191.747V166.917L191.751 166.946L192.269 166.888ZM138.74 120.693C138.74 118.43 140.575 116.594 142.839 116.594V115.551C139.999 115.551 137.696 117.853 137.696 120.693H138.74ZM138.74 171.74V120.693H137.696V171.74H138.74ZM139.072 173.36C138.858 172.863 138.74 172.316 138.74 171.74H137.696C137.696 172.461 137.845 173.148 138.114 173.772L139.072 173.36ZM165.325 197.313C161.1 197.313 155.18 194.602 149.963 190.206C144.758 185.819 140.367 179.848 139.105 173.465L138.081 173.667C139.404 180.361 143.976 186.525 149.29 191.003C154.592 195.472 160.746 198.357 165.325 198.357V197.313ZM191.911 169.813C191.911 176.917 187.655 183.794 182.138 188.922C179.387 191.479 176.341 193.583 173.395 195.044C170.443 196.509 167.626 197.313 165.325 197.313V198.357C167.844 198.357 170.825 197.485 173.859 195.979C176.9 194.47 180.028 192.308 182.849 189.686C188.476 184.456 192.955 177.322 192.955 169.813H191.911ZM191.751 166.946C191.857 167.887 191.911 168.844 191.911 169.813H192.955C192.955 168.805 192.898 167.809 192.787 166.829L191.751 166.946ZM191.747 120.693V166.888H192.791V120.693H191.747ZM187.648 116.594C189.912 116.594 191.747 118.43 191.747 120.693H192.791C192.791 117.853 190.488 115.551 187.648 115.551V116.594ZM142.839 116.594H187.648V115.551H142.839V116.594Z" fill="#0043A9" mask="url(#path-20-inside-1_32933_1118)"/>
<path d="M154.412 153.929C155.102 153.929 155.662 153.043 155.662 151.95C155.662 150.857 155.102 149.971 154.412 149.971C153.722 149.971 153.162 150.857 153.162 151.95C153.162 153.043 153.722 153.929 154.412 153.929Z" fill="#0043A9"/>
<path d="M176.463 153.929C177.153 153.929 177.713 153.043 177.713 151.95C177.713 150.857 177.153 149.971 176.463 149.971C175.773 149.971 175.213 150.857 175.213 151.95C175.213 153.043 175.773 153.929 176.463 153.929Z" fill="#0043A9"/>
<path d="M147.629 163.407C150.735 163.407 153.253 160.842 153.253 157.678C153.253 154.515 150.735 151.95 147.629 151.95C144.522 151.95 142.004 154.515 142.004 157.678C142.004 160.842 144.522 163.407 147.629 163.407Z" fill="#F6FAFF"/>
<path d="M182.728 163.407C185.892 163.407 188.456 160.842 188.456 157.678C188.456 154.515 185.892 151.95 182.728 151.95C179.564 151.95 177 154.515 177 157.678C177 160.842 179.564 163.407 182.728 163.407Z" fill="#F6FAFF"/>
<path d="M157.838 166.403C157.838 166.403 160.233 169.527 165.063 169.527C169.893 169.527 172.419 166.403 172.419 166.403" stroke="#0043A9" stroke-width="0.521727" stroke-linecap="round"/>
<path d="M144.976 146.663L158.32 146.1C159.495 146.05 160.474 146.99 160.474 148.165V158.902C160.474 160.805 162.017 162.348 163.92 162.348H164.884H165.848C167.751 162.348 169.293 160.805 169.293 158.902V148.165C169.293 146.989 170.273 146.05 171.447 146.1L184.833 146.663" stroke="#0043A9" stroke-width="0.521727" stroke-linecap="round"/>
<path d="M192.257 119.42V148.236L188.793 140.239C183.349 141.698 174.201 140.239 169.997 130.412C166.337 121.859 155.761 116.549 157.246 116.549H189.392C190.978 116.549 192.257 117.835 192.257 119.42Z" fill="#0043A9"/>
<path d="M138.041 116.549V148.236L140.9 138.458C140.9 138.458 145.335 132.393 150.221 129.298C157.676 124.577 158.686 116.549 157.846 116.549H138.041Z" fill="#0043A9"/>
<circle cx="135.725" cy="161.019" r="1.39432" fill="#0043A9"/>
<circle cx="194.286" cy="161.019" r="1.39432" fill="#0043A9"/>
<path opacity="0.8" fill-rule="evenodd" clip-rule="evenodd" d="M124.592 54.7671H207.276C213.176 54.7671 217.959 59.5503 217.959 65.4506V268.988C217.959 274.889 213.176 279.672 207.276 279.672H124.592C118.691 279.672 113.908 274.889 113.908 268.988V65.4506C113.908 59.5503 118.691 54.7671 124.592 54.7671ZM165.867 199.551C183.444 199.551 197.693 180.864 197.693 157.813C197.693 134.761 183.444 116.075 165.867 116.075C148.291 116.075 134.042 134.761 134.042 157.813C134.042 180.864 148.291 199.551 165.867 199.551Z" fill="#4D86D4"/>
<mask id="path-33-inside-2_32933_1118" fill="white">
<path d="M198.292 158.334C198.292 180.521 184.143 198.507 166.688 198.507C149.234 198.507 135.084 180.521 135.084 158.334C135.084 136.147 149.234 118.161 166.688 118.161C184.143 118.161 198.292 136.147 198.292 158.334Z"/>
</mask>
<path d="M199.075 158.334C199.075 157.646 199.061 156.962 199.035 156.283L197.471 156.344C197.497 157.003 197.51 157.666 197.51 158.334H199.075ZM198.713 152.193C198.55 150.819 198.333 149.467 198.065 148.141L196.531 148.451C196.791 149.735 197.001 151.045 197.159 152.377L198.713 152.193ZM197.083 144.153C196.695 142.822 196.253 141.523 195.762 140.261L194.304 140.829C194.778 142.048 195.205 143.304 195.58 144.591L197.083 144.153ZM194.098 136.5C193.478 135.257 192.806 134.059 192.087 132.91L190.76 133.741C191.453 134.846 192.1 136 192.698 137.199L194.098 136.5ZM189.723 129.536C188.865 128.438 187.957 127.4 187.005 126.429L185.887 127.525C186.798 128.453 187.667 129.447 188.49 130.5L189.723 129.536ZM183.937 123.657C182.846 122.788 181.71 121.998 180.534 121.295L179.731 122.638C180.845 123.304 181.923 124.054 182.962 124.881L183.937 123.657ZM176.829 119.423C175.546 118.89 174.228 118.455 172.879 118.125L172.507 119.645C173.776 119.955 175.018 120.365 176.227 120.869L176.829 119.423ZM168.771 117.461C168.082 117.406 167.388 117.378 166.688 117.378V118.943C167.346 118.943 167.998 118.97 168.646 119.021L168.771 117.461ZM166.688 117.378C165.989 117.378 165.294 117.406 164.606 117.461L164.731 119.021C165.378 118.97 166.03 118.943 166.688 118.943V117.378ZM160.497 118.125C159.148 118.455 157.83 118.89 156.547 119.423L157.149 120.869C158.358 120.365 159.6 119.955 160.869 119.645L160.497 118.125ZM152.842 121.295C151.666 121.998 150.53 122.788 149.439 123.657L150.415 124.881C151.453 124.054 152.532 123.304 153.646 122.638L152.842 121.295ZM146.372 126.429C145.419 127.4 144.511 128.438 143.653 129.536L144.886 130.5C145.709 129.447 146.578 128.453 147.489 127.525L146.372 126.429ZM141.29 132.91C140.57 134.059 139.898 135.257 139.278 136.5L140.678 137.199C141.276 136 141.924 134.846 142.616 133.741L141.29 132.91ZM137.614 140.261C137.123 141.523 136.682 142.822 136.294 144.153L137.796 144.591C138.172 143.304 138.598 142.048 139.073 140.829L137.614 140.261ZM135.312 148.141C135.043 149.467 134.826 150.819 134.663 152.193L136.217 152.377C136.375 151.045 136.586 149.735 136.846 148.451L135.312 148.141ZM134.341 156.283C134.315 156.962 134.301 157.646 134.301 158.334H135.867C135.867 157.666 135.88 157.003 135.905 156.344L134.341 156.283ZM134.301 158.334C134.301 159.021 134.315 159.705 134.341 160.385L135.905 160.324C135.88 159.665 135.867 159.001 135.867 158.334H134.301ZM134.663 164.475C134.826 165.849 135.043 167.201 135.312 168.527L136.846 168.216C136.586 166.932 136.375 165.622 136.217 164.29L134.663 164.475ZM136.294 172.514C136.682 173.845 137.123 175.144 137.614 176.406L139.073 175.838C138.598 174.619 138.172 173.364 137.796 172.076L136.294 172.514ZM139.278 180.167C139.898 181.41 140.57 182.609 141.29 183.757L142.616 182.926C141.924 181.821 141.276 180.667 140.678 179.468L139.278 180.167ZM143.653 187.131C144.511 188.229 145.419 189.267 146.372 190.238L147.489 189.142C146.578 188.214 145.709 187.221 144.886 186.167L143.653 187.131ZM149.439 193.01C150.53 193.879 151.666 194.669 152.842 195.372L153.646 194.029C152.532 193.363 151.453 192.613 150.415 191.786L149.439 193.01ZM156.547 197.244C157.83 197.777 159.148 198.213 160.497 198.543L160.869 197.022C159.6 196.712 158.358 196.302 157.149 195.799L156.547 197.244ZM164.606 199.206C165.294 199.261 165.989 199.289 166.688 199.289V197.724C166.03 197.724 165.378 197.698 164.731 197.646L164.606 199.206ZM166.688 199.289C167.388 199.289 168.082 199.261 168.771 199.206L168.646 197.646C167.998 197.698 167.346 197.724 166.688 197.724V199.289ZM172.879 198.543C174.228 198.213 175.546 197.777 176.829 197.244L176.227 195.799C175.018 196.302 173.776 196.712 172.507 197.022L172.879 198.543ZM180.534 195.372C181.71 194.669 182.846 193.879 183.937 193.01L182.962 191.786C181.923 192.613 180.845 193.363 179.731 194.029L180.534 195.372ZM187.005 190.238C187.957 189.267 188.865 188.229 189.723 187.131L188.49 186.167C187.667 187.221 186.798 188.214 185.887 189.142L187.005 190.238ZM192.087 183.757C192.806 182.609 193.478 181.41 194.098 180.167L192.698 179.468C192.1 180.667 191.453 181.821 190.76 182.926L192.087 183.757ZM195.762 176.406C196.253 175.144 196.695 173.845 197.083 172.514L195.58 172.076C195.205 173.364 194.778 174.619 194.304 175.838L195.762 176.406ZM198.065 168.527C198.333 167.201 198.55 165.849 198.713 164.475L197.159 164.29C197.001 165.622 196.791 166.932 196.531 168.216L198.065 168.527ZM199.035 160.385C199.061 159.705 199.075 159.021 199.075 158.334H197.51C197.51 159.001 197.497 159.665 197.471 160.324L199.035 160.385ZM199.857 158.334C199.857 157.636 199.844 156.942 199.817 156.252L196.689 156.374C196.714 157.023 196.727 157.676 196.727 158.334H199.857ZM199.491 152.1C199.325 150.705 199.104 149.332 198.832 147.985L195.764 148.606C196.019 149.87 196.226 151.159 196.382 152.47L199.491 152.1ZM197.834 143.934C197.44 142.581 196.991 141.261 196.492 139.977L193.574 141.113C194.04 142.311 194.46 143.544 194.829 144.81L197.834 143.934ZM194.799 136.151C194.167 134.886 193.483 133.665 192.75 132.494L190.097 134.156C190.776 135.24 191.411 136.372 191.997 137.548L194.799 136.151ZM190.34 129.054C189.464 127.934 188.537 126.874 187.563 125.881L185.329 128.073C186.218 128.98 187.068 129.951 187.874 130.982L190.34 129.054ZM184.425 123.045C183.307 122.155 182.143 121.345 180.936 120.623L179.329 123.309C180.412 123.958 181.462 124.687 182.474 125.494L184.425 123.045ZM177.129 118.701C175.811 118.152 174.454 117.704 173.065 117.365L172.321 120.405C173.55 120.706 174.753 121.103 175.927 121.591L177.129 118.701ZM168.833 116.681C168.124 116.624 167.408 116.595 166.688 116.595V119.726C167.325 119.726 167.957 119.751 168.583 119.802L168.833 116.681ZM166.688 116.595C165.968 116.595 165.252 116.624 164.543 116.681L164.793 119.802C165.42 119.751 166.051 119.726 166.688 119.726V116.595ZM160.311 117.365C158.922 117.704 157.565 118.152 156.247 118.701L157.449 121.591C158.623 121.103 159.826 120.706 161.055 120.405L160.311 117.365ZM152.44 120.623C151.233 121.345 150.069 122.155 148.952 123.045L150.902 125.494C151.914 124.687 152.964 123.958 154.047 123.309L152.44 120.623ZM145.813 125.881C144.839 126.874 143.912 127.934 143.036 129.054L145.502 130.982C146.308 129.951 147.158 128.98 148.048 128.073L145.813 125.881ZM140.627 132.494C139.893 133.665 139.209 134.886 138.578 136.151L141.379 137.548C141.966 136.372 142.6 135.24 143.279 134.156L140.627 132.494ZM136.885 139.977C136.385 141.261 135.937 142.581 135.542 143.934L138.547 144.81C138.917 143.544 139.336 142.311 139.802 141.113L136.885 139.977ZM134.544 147.985C134.272 149.332 134.051 150.705 133.886 152.1L136.994 152.47C137.15 151.159 137.357 149.87 137.613 148.606L134.544 147.985ZM133.559 156.252C133.532 156.942 133.519 157.636 133.519 158.334H136.649C136.649 157.676 136.662 157.023 136.687 156.374L133.559 156.252ZM133.519 158.334C133.519 159.032 133.532 159.725 133.559 160.415L136.687 160.293C136.662 159.644 136.649 158.991 136.649 158.334H133.519ZM133.886 164.567C134.051 165.962 134.272 167.335 134.544 168.682L137.613 168.061C137.357 166.798 137.15 165.509 136.994 164.198L133.886 164.567ZM135.542 172.733C135.937 174.086 136.385 175.406 136.885 176.69L139.802 175.555C139.336 174.357 138.917 173.123 138.547 171.857L135.542 172.733ZM138.578 180.516C139.209 181.782 139.893 183.002 140.627 184.173L143.279 182.511C142.6 181.427 141.966 180.295 141.379 179.119L138.578 180.516ZM143.036 187.613C143.912 188.734 144.839 189.793 145.813 190.786L148.048 188.594C147.158 187.687 146.308 186.716 145.502 185.685L143.036 187.613ZM148.952 193.622C150.069 194.512 151.233 195.322 152.44 196.044L154.047 193.358C152.964 192.71 151.914 191.98 150.902 191.174L148.952 193.622ZM156.247 197.966C157.565 198.515 158.922 198.963 160.311 199.303L161.055 196.262C159.826 195.962 158.623 195.564 157.449 195.076L156.247 197.966ZM164.543 199.986C165.252 200.043 165.968 200.072 166.688 200.072V196.941C166.051 196.941 165.42 196.916 164.793 196.866L164.543 199.986ZM166.688 200.072C167.408 200.072 168.124 200.043 168.833 199.986L168.583 196.866C167.957 196.916 167.325 196.941 166.688 196.941V200.072ZM173.065 199.303C174.454 198.963 175.811 198.515 177.129 197.966L175.927 195.076C174.753 195.564 173.55 195.962 172.321 196.262L173.065 199.303ZM180.936 196.044C182.143 195.322 183.307 194.512 184.425 193.622L182.474 191.174C181.462 191.98 180.412 192.71 179.329 193.358L180.936 196.044ZM187.563 190.786C188.537 189.793 189.464 188.734 190.34 187.613L187.874 185.685C187.068 186.716 186.218 187.687 185.329 188.594L187.563 190.786ZM192.75 184.173C193.483 183.002 194.167 181.782 194.799 180.516L191.997 179.119C191.411 180.295 190.776 181.427 190.097 182.511L192.75 184.173ZM196.492 176.69C196.991 175.406 197.44 174.086 197.834 172.733L194.829 171.857C194.46 173.123 194.04 174.357 193.574 175.555L196.492 176.69ZM198.832 168.682C199.104 167.335 199.325 165.962 199.491 164.567L196.382 164.198C196.226 165.509 196.019 166.798 195.764 168.061L198.832 168.682ZM199.817 160.415C199.844 159.725 199.857 159.032 199.857 158.334H196.727C196.727 158.991 196.714 159.644 196.689 160.293L199.817 160.415Z" fill="#FFD64F" mask="url(#path-33-inside-2_32933_1118)"/>
</g>
<path d="M153.006 378.2C153.006 378.2 131.364 274.328 152.072 274.222C172.78 274.115 169.222 340.664 187.205 311.885C205.188 283.107 179.824 214.724 192.233 215.157C204.643 215.589 214.588 239.123 214.588 239.123C214.588 239.123 243.853 243.04 249.552 257.733C249.552 257.733 263.534 259.105 267.147 274.935C270.765 290.777 262.005 379.783 262.005 379.783" fill="white"/>
<path d="M153.006 378.2C153.006 378.2 131.364 274.328 152.072 274.222C172.78 274.115 169.222 340.664 187.205 311.885C205.188 283.107 179.824 214.724 192.233 215.157C204.643 215.589 214.588 239.123 214.588 239.123C214.588 239.123 243.853 243.04 249.552 257.733C249.552 257.733 263.534 259.105 267.147 274.935C270.765 290.777 262.005 379.783 262.005 379.783" stroke="#0043A9" stroke-width="0.521727" stroke-miterlimit="10"/>
<path d="M219.198 281.802C219.198 281.802 220.109 254.678 214.594 239.122L219.198 281.802Z" fill="white"/>
<path d="M219.198 281.802C219.198 281.802 220.109 254.678 214.594 239.122" stroke="#0043A9" stroke-width="0.521727" stroke-miterlimit="10"/>
<path d="M235.352 289.249C235.352 289.249 242.415 252.717 223.077 240.807L235.352 289.249Z" fill="white"/>
<path d="M235.352 289.249C235.352 289.249 242.415 252.717 223.077 240.807" stroke="#0043A9" stroke-width="0.521727" stroke-miterlimit="10"/>
<path d="M250.081 294.195C250.081 294.195 254.046 268.336 249.554 257.726L250.081 294.195Z" fill="white"/>
<path d="M250.081 294.195C250.081 294.195 254.046 268.336 249.554 257.726" stroke="#0043A9" stroke-width="0.521727" stroke-miterlimit="10"/>
<path d="M106.974 252.143C108.255 250.398 109.589 248.529 110.962 246.542C120.861 232.213 132.833 210.456 142.732 217.279C152.631 224.103 132.996 271.782 132.996 271.782C132.996 271.782 139.67 307.952 106.974 324.329L93.1439 373.157H38.8789C49.4318 251.178 64.6792 243.573 71.4672 232.467C80.8125 217.176 94.7547 198.594 106.974 179.127V252.143Z" fill="white" stroke="#0043A9" stroke-width="0.521727"/>
</g>
<defs>
<clipPath id="clip0_32933_1118">
<rect x="0.5" width="344" height="367" rx="16" fill="white"/>
</clipPath>
<clipPath id="clip1_32933_1118">
<rect width="125.184" height="247.35" fill="white" transform="translate(103.569 39.9011)"/>
</clipPath>
</defs>
</svg>
