<svg width="345" height="368" viewBox="0 0 345 368" fill="none" xmlns="http://www.w3.org/2000/svg">
<g clip-path="url(#clip0_32933_1410)">
<rect x="0.5" y="0.5" width="344" height="367" rx="16" fill="#94BAE9"/>
<g clip-path="url(#clip1_32933_1410)">
<path d="M45.8065 279.252C82.2228 353.073 165.731 354.347 225.139 322.315C277.401 294.114 309.94 237.673 298.383 169.908C289.342 116.802 256.602 80.9368 202.811 82.2609C148.308 83.6278 111.855 109.079 102.759 176.287C95.7734 228.045 16.2767 211.877 45.8286 279.217" fill="#B0CDF1"/>
<path d="M100.571 115.391C100.008 115.106 99.4294 114.843 98.8511 114.595C97.7545 114.122 96.643 113.694 95.5164 113.326C94.7428 113.078 93.9541 112.86 93.1655 112.665C92.8726 112.575 92.5871 112.492 92.2942 112.417C92.1065 110.209 91.8737 108.001 91.408 105.83C91.1301 104.501 90.7771 103.164 90.2513 101.91C89.8533 100.971 89.2449 99.9943 88.2459 99.6112C87.1268 99.1756 86.3683 99.9342 85.9852 100.911C85.4895 102.172 85.1591 103.509 84.9112 104.839C84.4831 107.122 84.3178 109.443 84.2052 111.756C84.0249 111.801 83.8447 111.846 83.6644 111.891C82.4327 112.229 81.2009 112.59 79.9992 112.995C78.82 113.401 77.6483 113.859 76.5443 114.43C75.5754 114.933 74.4112 115.496 74.8168 116.788C75.5754 119.199 78.6773 119.041 80.6526 119.259C81.9294 119.402 83.1687 119.74 84.408 120.055C84.7084 122.902 85.2191 125.718 85.9702 128.475C86.3532 129.864 86.7888 131.239 87.2921 132.583C87.6526 133.56 88.0882 134.776 89.35 134.716C90.5968 134.656 91.1451 133.477 91.3779 132.411C91.7009 130.983 91.9713 129.534 92.2041 128.084C92.6172 125.501 92.8576 122.894 92.6923 120.281C94.3747 120.018 96.0571 119.74 97.7395 119.447C98.8286 119.252 100.113 119.184 101.089 118.613C101.915 118.133 102.569 117.036 101.855 116.18C101.54 115.797 101.007 115.609 100.579 115.391" fill="#0043A9"/>
<path d="M201.256 108.081C201.895 110.167 202.351 112.314 202.77 114.465C203.43 117.614 203.669 119.102 204.046 122.151C204.496 124.703 204.619 127.288 204.599 129.867C204.587 131.315 204.545 132.766 204.458 134.2C204.4 135.271 204.101 136.485 203.102 136.668C202.103 136.851 201.604 135.724 201.197 134.806L201.184 134.777C200.615 133.506 200.097 132.199 199.619 130.872C196.821 123.036 195.651 115.984 195.897 107.754C195.935 106.423 196.039 105.077 196.286 103.787C196.477 102.79 196.996 101.969 197.952 102.286C198.804 102.562 199.413 103.461 199.848 104.344C200.424 105.524 200.871 106.802 201.256 108.081Z" fill="#0043A9"/>
<path d="M166.004 136.058C167.631 136.839 169.165 137.788 170.678 138.765C172.923 140.164 173.934 140.878 175.928 142.421C177.69 143.615 179.245 145.066 180.7 146.617C181.515 147.487 182.312 148.382 183.068 149.299C183.638 149.98 184.123 150.918 183.541 151.749C182.958 152.581 181.974 152.271 181.172 152.019L181.147 152.011C180.033 151.665 178.933 151.262 177.85 150.816C171.468 148.173 166.651 144.819 162.136 139.74C161.405 138.919 160.71 138.042 160.146 137.096C159.709 136.364 159.599 135.499 160.436 134.997C161.179 134.545 162.109 134.64 162.91 134.851C163.977 135.137 165.012 135.576 166.004 136.058Z" fill="#0043A9"/>
<path d="M177.621 107.784C178.705 109.226 186.488 121.615 187.379 123.179C188.727 125.456 189.296 126.555 190.354 128.844C191.367 130.715 192.079 132.719 192.655 134.766C192.978 135.914 193.273 137.076 193.521 138.238C193.713 139.104 193.711 140.161 192.812 140.631C191.911 141.1 191.181 140.372 190.585 139.778L190.567 139.759C189.737 138.939 188.947 138.074 188.191 137.18C183.745 131.892 174.158 115.856 172.491 109.268C172.221 108.203 172.009 107.105 171.944 106.005C171.893 105.154 172.194 104.336 173.168 104.276C174.036 104.217 174.817 104.73 175.431 105.287C176.247 106.033 176.963 106.898 177.621 107.784Z" fill="#0043A9"/>
<path d="M68.7786 129.699C65.7367 129.699 65.7292 134.43 68.7786 134.43C71.8279 134.43 71.8279 129.699 68.7786 129.699Z" fill="#0043A9"/>
<path d="M106.55 102.09C103.508 102.09 103.501 106.822 106.55 106.822C109.599 106.822 109.599 102.09 106.55 102.09Z" fill="#0043A9"/>
<path d="M268.635 383.391C268.599 382.044 268.322 380.01 267.85 377.442C267.326 374.594 266.567 371.116 265.65 367.246C263.817 359.505 261.356 350.205 258.888 341.244C256.42 332.284 253.947 323.664 252.091 317.285C251.163 314.096 250.389 311.466 249.847 309.634C249.576 308.718 249.363 308.001 249.218 307.514L249.07 307.018C246.448 306.753 229.881 304.689 213.661 302.652C205.183 301.587 196.792 300.53 190.521 299.738C187.385 299.342 184.78 299.012 182.958 298.782L180.845 298.515L180.574 298.48C180.662 299.278 180.875 300.719 181.19 302.681C181.58 305.107 182.123 308.303 182.766 312C184.053 319.395 185.744 328.791 187.427 338.033C189.109 347.275 190.783 356.363 192.036 363.14C192.663 366.528 193.185 369.339 193.549 371.303C193.732 372.285 193.875 373.055 193.973 373.579L194.071 374.106L268.635 383.391Z" fill="white" stroke="#0043A9" stroke-width="0.771883"/>
<path d="M271.451 279.426C281.218 257.216 301.69 247.439 290.133 234.828C278.267 221.878 256.18 248.149 256.18 248.149C256.29 220.031 272.777 172.559 269.414 159.447C265.493 144.159 253.236 150.242 253.236 150.242C253.236 150.242 250.437 144.143 245.247 142.238C237.879 139.535 232.121 143.846 232.121 143.846C232.121 143.846 229.888 140.047 222.509 141.473C215.679 142.792 213.064 149.527 213.064 149.527C211.945 147.838 204.393 146.678 199.907 151.763C193.958 158.508 185.671 189.752 180.95 211.323C173.46 245.547 166.269 281.885 178.932 296.097C191.595 310.308 213.446 313.437 233.083 312.076C252.719 310.714 258.582 308.692 271.451 279.426Z" fill="white" stroke="#0043A9" stroke-width="0.771883"/>
<path d="M234.072 223.686C235.983 208.339 243.152 152.691 253.461 150.132" stroke="#0043A9" stroke-width="0.771883"/>
<path d="M214.957 217.324C216.533 204.669 222.801 145.702 233.796 142.973" stroke="#0043A9" stroke-width="0.771883"/>
<path d="M197.236 215.757C200.085 192.875 208.4 158.608 214.447 147.053" stroke="#0043A9" stroke-width="0.771883"/>
<path d="M243.825 230.288C241.705 223.604 204.74 211.171 187.851 217.925" stroke="#0043A9" stroke-width="0.771883"/>
<path d="M256.228 248.009C253.383 251.795 247.327 259.321 245.858 259.138" stroke="#0043A9" stroke-width="1.00345"/>
<path d="M242.162 246.356C231.565 247.442 210.024 255.109 208.629 277.089" stroke="#0043A9" stroke-width="0.771883"/>
<path fill-rule="evenodd" clip-rule="evenodd" d="M184.745 241.711C181.407 247.971 177.566 255.175 177.815 263.615C178.391 283.163 169.16 300.426 160.23 309.302C159.15 310.376 157.452 311.399 155.285 312.353L140.991 372.719L65.3088 384.629L87.1003 311.447C78.4349 299.961 69.9972 273.696 70.4176 242.727C70.5949 229.669 66.8461 215.078 63.7702 203.107C61.2159 193.165 59.1255 185.029 60.1323 181.075C61.8056 174.504 68.9279 172.383 71.1415 173.273C71.1415 173.273 69.3006 166.509 75.5554 161.611C81.4728 156.978 85.1923 159.341 85.1923 159.341C85.1923 159.341 88.3515 152.878 96.1414 151.925C101.63 151.253 106.901 155.405 106.901 155.405C106.901 155.405 115.037 144.403 125.496 156.22C134.468 166.357 155.197 220.897 152.174 244.614C152.174 244.614 170.03 210.559 184.84 221.233C192.659 226.869 189.138 233.472 184.745 241.711Z" fill="white"/>
<path d="M177.815 263.615L177.429 263.627L177.815 263.615ZM184.745 241.711L185.086 241.892L185.086 241.892L184.745 241.711ZM160.23 309.302L159.958 309.028L160.23 309.302ZM155.285 312.353L154.91 312.264L154.954 312.077L155.13 312L155.285 312.353ZM140.991 372.719L141.366 372.808L141.307 373.06L141.051 373.1L140.991 372.719ZM65.3088 384.629L65.3688 385.01L64.7642 385.105L64.9389 384.519L65.3088 384.629ZM87.1003 311.447L87.4084 311.215L87.5258 311.37L87.4702 311.557L87.1003 311.447ZM70.4176 242.727L70.8035 242.732L70.4176 242.727ZM63.7702 203.107L63.3964 203.203L63.7702 203.107ZM60.1323 181.075L60.5063 181.171L60.1323 181.075ZM71.1415 173.273L71.5139 173.172L71.7177 173.921L70.9975 173.631L71.1415 173.273ZM75.5554 161.611L75.7933 161.915L75.5554 161.611ZM85.1923 159.341L85.539 159.51L85.3495 159.898L84.9853 159.667L85.1923 159.341ZM96.1414 151.925L96.1883 152.308L96.1414 151.925ZM106.901 155.405L107.212 155.634L106.975 155.954L106.662 155.708L106.901 155.405ZM125.496 156.22L125.785 155.965L125.496 156.22ZM152.174 244.614L152.516 244.793L151.791 244.565L152.174 244.614ZM184.84 221.233L184.614 221.546L184.84 221.233ZM177.429 263.627C177.177 255.069 181.074 247.777 184.405 241.529L185.086 241.892C181.741 248.165 177.955 255.281 178.201 263.604L177.429 263.627ZM159.958 309.028C168.822 300.218 178.002 283.055 177.429 263.627L178.201 263.604C178.781 283.271 169.498 300.634 160.502 309.575L159.958 309.028ZM155.13 312C157.279 311.053 158.927 310.053 159.958 309.028L160.502 309.575C159.373 310.698 157.625 311.744 155.441 312.706L155.13 312ZM155.661 312.442L141.366 372.808L140.615 372.63L154.91 312.264L155.661 312.442ZM141.051 373.1L65.3688 385.01L65.2488 384.248L140.931 372.337L141.051 373.1ZM64.9389 384.519L86.7304 311.337L87.4702 311.557L65.6786 384.739L64.9389 384.519ZM70.8035 242.732C70.3838 273.649 78.8119 299.82 87.4084 311.215L86.7922 311.679C78.0579 300.102 69.6106 273.742 70.0317 242.722L70.8035 242.732ZM64.144 203.011C67.2169 214.971 70.9816 229.613 70.8035 242.732L70.0317 242.722C70.2081 229.724 66.4754 215.186 63.3964 203.203L64.144 203.011ZM60.5063 181.171C60.0265 183.055 60.2782 185.999 60.995 189.774C61.7082 193.53 62.8658 198.036 64.144 203.011L63.3964 203.203C62.1202 198.236 60.9555 193.703 60.2366 189.918C59.5214 186.151 59.2313 183.05 59.7583 180.98L60.5063 181.171ZM70.9975 173.631C70.5411 173.447 69.7646 173.401 68.7895 173.573C67.8273 173.741 66.7171 174.114 65.6196 174.715C63.4253 175.916 61.311 178.011 60.5063 181.171L59.7583 180.98C60.6269 177.569 62.9104 175.318 65.249 174.038C66.4179 173.398 67.6079 172.996 68.656 172.812C69.6912 172.631 70.6351 172.653 71.2855 172.915L70.9975 173.631ZM75.7933 161.915C72.758 164.292 71.6955 167.11 71.3851 169.332C71.2295 170.447 71.2631 171.413 71.3354 172.099C71.3715 172.442 71.4172 172.714 71.4533 172.898C71.4714 172.991 71.4871 173.061 71.498 173.107C71.5034 173.13 71.5077 173.147 71.5104 173.158C71.5118 173.164 71.5128 173.167 71.5134 173.17C71.5137 173.171 71.5139 173.172 71.514 173.172C71.514 173.172 71.514 173.172 71.514 173.172C71.514 173.172 71.514 173.172 71.514 173.172C71.5139 173.172 71.5139 173.172 71.1415 173.273C70.7691 173.374 70.769 173.374 70.769 173.374C70.7689 173.374 70.7689 173.373 70.7688 173.373C70.7687 173.373 70.7685 173.372 70.7683 173.371C70.768 173.37 70.7675 173.368 70.7669 173.366C70.7658 173.362 70.7643 173.356 70.7624 173.348C70.7585 173.333 70.7532 173.312 70.7467 173.284C70.7337 173.229 70.7159 173.149 70.6959 173.047C70.6558 172.842 70.6065 172.548 70.5678 172.18C70.4903 171.445 70.4546 170.414 70.6207 169.225C70.9536 166.841 72.098 163.828 75.3174 161.307L75.7933 161.915ZM85.1923 159.341C84.9853 159.667 84.9856 159.667 84.9858 159.667C84.9858 159.667 84.9861 159.667 84.9862 159.667C84.9864 159.667 84.9866 159.667 84.9867 159.668C84.9869 159.668 84.987 159.668 84.9868 159.668C84.9863 159.667 84.9851 159.667 84.9829 159.665C84.9786 159.663 84.9708 159.658 84.9595 159.652C84.937 159.639 84.9006 159.619 84.8509 159.595C84.7515 159.546 84.5985 159.478 84.3951 159.41C83.9884 159.272 83.3794 159.13 82.5902 159.124C81.0187 159.113 78.6925 159.645 75.7933 161.915L75.3174 161.307C78.3357 158.944 80.828 158.34 82.5956 158.352C83.4759 158.359 84.1666 158.518 84.6423 158.678C84.88 158.759 85.0639 158.84 85.1909 158.902C85.2545 158.933 85.3038 158.96 85.3387 158.979C85.3561 158.989 85.3699 158.997 85.38 159.003C85.3851 159.006 85.3892 159.009 85.3924 159.011C85.394 159.012 85.3954 159.013 85.3965 159.013C85.3971 159.014 85.3976 159.014 85.3981 159.014C85.3983 159.015 85.3986 159.015 85.3987 159.015C85.399 159.015 85.3993 159.015 85.1923 159.341ZM96.1883 152.308C92.3977 152.771 89.7352 154.574 88.0163 156.265C87.1563 157.111 86.5341 157.928 86.1278 158.532C85.9248 158.833 85.776 159.081 85.6787 159.252C85.6301 159.338 85.5944 159.404 85.5712 159.448C85.5596 159.47 85.5512 159.486 85.5458 159.497C85.5432 159.502 85.5413 159.506 85.5401 159.508C85.5396 159.509 85.5392 159.51 85.539 159.51C85.5389 159.511 85.5389 159.511 85.5389 159.511C85.5389 159.511 85.5389 159.511 85.5389 159.511C85.539 159.511 85.539 159.51 85.1923 159.341C84.8456 159.171 84.8457 159.171 84.8458 159.171C84.8458 159.171 84.8459 159.171 84.846 159.171C84.8462 159.17 84.8465 159.17 84.8468 159.169C84.8473 159.168 84.8481 159.166 84.8491 159.164C84.8511 159.16 84.8538 159.155 84.8574 159.148C84.8645 159.134 84.8747 159.114 84.8882 159.088C84.9151 159.037 84.9548 158.964 85.0078 158.87C85.1137 158.684 85.2726 158.42 85.4875 158.101C85.9169 157.463 86.5714 156.604 87.475 155.715C89.2831 153.936 92.0952 152.031 96.0946 151.542L96.1883 152.308ZM106.901 155.405C106.662 155.708 106.663 155.708 106.663 155.708C106.663 155.708 106.663 155.708 106.663 155.708C106.662 155.708 106.662 155.708 106.662 155.708C106.662 155.708 106.661 155.707 106.66 155.706C106.658 155.705 106.655 155.702 106.65 155.699C106.641 155.691 106.627 155.681 106.608 155.666C106.57 155.638 106.513 155.595 106.438 155.54C106.287 155.432 106.065 155.276 105.781 155.09C105.212 154.718 104.397 154.23 103.413 153.762C101.439 152.822 98.8279 151.985 96.1883 152.308L96.0946 151.542C98.9431 151.193 101.712 152.097 103.745 153.065C104.766 153.551 105.612 154.058 106.203 154.444C106.498 154.637 106.731 154.8 106.89 154.915C106.97 154.973 107.032 155.019 107.074 155.051C107.095 155.067 107.111 155.079 107.122 155.088C107.127 155.092 107.132 155.095 107.135 155.098C107.136 155.099 107.137 155.1 107.138 155.1C107.139 155.101 107.139 155.101 107.139 155.101C107.14 155.101 107.14 155.102 107.14 155.102C107.14 155.102 107.14 155.102 106.901 155.405ZM125.207 156.476C122.628 153.562 120.219 152.084 118.073 151.479C115.932 150.874 114.019 151.13 112.414 151.742C110.803 152.356 109.5 153.329 108.596 154.155C108.145 154.568 107.797 154.941 107.562 155.209C107.444 155.344 107.355 155.452 107.297 155.525C107.267 155.562 107.245 155.59 107.231 155.609C107.224 155.618 107.219 155.625 107.215 155.629C107.214 155.631 107.213 155.633 107.212 155.634C107.212 155.634 107.211 155.635 107.211 155.635C107.211 155.635 107.211 155.635 107.211 155.635C107.211 155.635 107.212 155.634 106.901 155.405C106.591 155.176 106.591 155.175 106.591 155.175C106.591 155.175 106.592 155.175 106.592 155.174C106.592 155.174 106.593 155.173 106.593 155.172C106.595 155.17 106.597 155.168 106.599 155.165C106.604 155.159 106.61 155.15 106.619 155.139C106.636 155.116 106.661 155.084 106.694 155.043C106.759 154.962 106.855 154.845 106.981 154.701C107.231 154.415 107.6 154.02 108.075 153.586C109.024 152.718 110.409 151.68 112.139 151.02C113.875 150.359 115.958 150.08 118.283 150.736C120.605 151.391 123.135 152.97 125.785 155.965L125.207 156.476ZM151.791 244.565C152.539 238.697 151.82 230.889 150.164 222.295C148.509 213.709 145.926 204.368 142.967 195.446C140.008 186.524 136.675 178.028 133.524 171.133C130.366 164.224 127.408 158.963 125.207 156.476L125.785 155.965C128.07 158.546 131.068 163.904 134.226 170.813C137.39 177.736 140.733 186.258 143.7 195.203C146.666 204.148 149.259 213.522 150.922 222.149C152.583 230.769 153.32 238.673 152.557 244.663L151.791 244.565ZM184.614 221.546C181.048 218.976 177.307 219.086 173.646 220.735C169.964 222.393 166.387 225.601 163.243 229.176C160.104 232.744 157.421 236.649 155.522 239.665C154.573 241.173 153.82 242.456 153.306 243.362C153.048 243.815 152.85 244.174 152.717 244.419C152.65 244.541 152.6 244.635 152.566 244.698C152.549 244.73 152.536 244.754 152.528 244.77C152.524 244.778 152.521 244.784 152.519 244.788C152.518 244.79 152.517 244.791 152.516 244.792C152.516 244.792 152.516 244.793 152.516 244.793C152.516 244.793 152.516 244.793 152.174 244.614C151.832 244.435 151.832 244.435 151.832 244.434C151.832 244.434 151.833 244.433 151.833 244.433C151.834 244.432 151.835 244.43 151.836 244.428C151.838 244.424 151.841 244.417 151.846 244.409C151.855 244.392 151.868 244.367 151.885 244.335C151.92 244.27 151.971 244.174 152.039 244.05C152.174 243.801 152.375 243.438 152.634 242.981C153.154 242.066 153.912 240.773 154.869 239.254C156.78 236.218 159.487 232.277 162.663 228.666C165.834 225.061 169.498 221.756 173.329 220.031C177.182 218.296 181.226 218.153 185.065 220.92L184.614 221.546ZM184.405 241.529C186.613 237.388 188.549 233.746 188.99 230.445C189.208 228.81 189.056 227.274 188.39 225.811C187.724 224.347 186.529 222.926 184.614 221.546L185.065 220.92C187.06 222.357 188.358 223.876 189.093 225.492C189.829 227.11 189.988 228.797 189.755 230.547C189.292 234.016 187.271 237.795 185.086 241.892L184.405 241.529Z" fill="#0043A9"/>
<path d="M123.333 229.508C126.802 209.392 99.0427 162.183 107.051 155.205" stroke="#0043A9" stroke-width="0.771883"/>
<path d="M101.045 234.209C105.293 205.695 77.7436 165.241 86.2849 157.799" stroke="#0043A9" stroke-width="0.771883"/>
<path d="M84.2488 239.23C86.5883 213.442 72.8693 190.163 70.9243 170.254" stroke="#0043A9" stroke-width="0.771883"/>
<path d="M152.451 243.793C151.259 247.254 148.638 255.473 147.688 260.668" stroke="#0043A9" stroke-width="1.00345"/>
<path d="M181.955 334.08L265.263 334.08L281.949 388.432L187.99 376.731C187.99 376.731 182.87 339.112 181.955 334.08Z" fill="#F58147"/>
<path d="M156.863 333.353L73.6695 333.353L58.5294 386.517L152.063 371.797C152.063 371.797 156.11 338.412 156.863 333.353Z" fill="#0043A9"/>
</g>
</g>
<defs>
<clipPath id="clip0_32933_1410">
<rect x="0.5" y="0.5" width="344" height="367" rx="16" fill="white"/>
</clipPath>
<clipPath id="clip1_32933_1410">
<rect width="291" height="291" fill="white" transform="translate(27 76.5)"/>
</clipPath>
</defs>
</svg>
