<svg width="12px" height="120px" viewBox="0 0 12 120" fill="none" xmlns="http://www.w3.org/2000/svg">
<g clip-path="url(#clip0_16874_423515)">
<path fill-rule="evenodd" clip-rule="evenodd" d="M8.03899 115.449L4.32049 116.772L4.32049 116.278L7.01399 115.393C7.24449 115.32 7.44899 115.248 7.62399 115.199C7.43149 115.153 7.23249 115.089 7.01399 115.024L4.32049 114.094L4.32049 113.628L8.03899 114.979L8.03899 115.449V115.449ZM4.32049 110.964L8.03899 110.964L8.03899 110.498L4.31999 110.498L4.31999 110.964L4.32049 110.964ZM6.56899 105.924L6.14299 105.924L6.14299 104.464L7.51899 104.464C7.71999 104.694 7.85899 104.915 7.95499 105.144C8.05099 105.389 8.08649 105.631 8.08649 105.881C8.08649 106.217 8.02449 106.528 7.87299 106.792C7.71999 107.083 7.49399 107.288 7.18849 107.425C6.90149 107.57 6.56149 107.634 6.18649 107.634C5.83833 107.638 5.49339 107.567 5.17549 107.425C4.86199 107.288 4.64349 107.088 4.48849 106.817C4.33399 106.561 4.26099 106.255 4.26099 105.925C4.26099 105.672 4.28199 105.442 4.38299 105.25C4.46189 105.061 4.58752 104.896 4.74799 104.77C4.90499 104.657 5.10599 104.576 5.35699 104.509L5.47949 104.923C5.28949 104.972 5.14999 105.036 5.03649 105.112C4.92538 105.201 4.83581 105.313 4.77449 105.442C4.70449 105.583 4.67499 105.747 4.67499 105.925C4.67499 106.122 4.70449 106.303 4.78349 106.456C4.84449 106.601 4.94899 106.733 5.04549 106.817C5.16699 106.91 5.28949 106.983 5.41049 107.027C5.65049 107.123 5.90149 107.163 6.16049 107.163C6.49249 107.163 6.77549 107.123 7.01399 107.011C7.21849 106.902 7.39649 106.761 7.49749 106.552C7.60249 106.351 7.65799 106.134 7.65799 105.905C7.65799 105.715 7.61649 105.526 7.53649 105.33C7.46925 105.176 7.38181 105.033 7.27649 104.903L6.56899 104.903L6.56899 105.925L6.56899 105.924ZM4.32049 101.532L8.03899 101.532L8.03899 101.07L4.31999 101.07L4.31999 101.532L4.32049 101.532ZM8.03899 98.1122L4.31999 98.1122L4.31999 97.6472L7.58799 97.6472L7.58799 95.9662L8.03799 95.9662L8.03799 98.1122L8.03899 98.1122ZM8.03899 93.6157L4.32049 92.2977L4.32049 91.8062L8.03899 90.3987L8.03899 90.9212L6.91399 91.3242L6.91399 92.7552L8.03899 93.1372L8.03899 93.6157ZM6.50949 92.6312L6.50949 91.4597L5.47949 91.8217C5.16699 91.9297 4.90499 92.0187 4.70449 92.0637C4.94899 92.0987 5.17549 92.1687 5.40999 92.2517L6.50999 92.6312L6.50949 92.6312ZM8.03899 87.8607L4.31999 87.8607L4.31999 86.6617C4.31999 86.4082 4.33349 86.2067 4.36899 86.0617C4.41799 85.8682 4.50899 85.6957 4.64299 85.5557C4.80499 85.3737 5.01799 85.2447 5.27449 85.1532C5.53099 85.0562 5.82799 85.0127 6.15999 85.0127C6.45099 85.0127 6.69999 85.0482 6.91399 85.1177C7.13049 85.1692 7.30149 85.2447 7.44899 85.3387C7.58799 85.4427 7.70199 85.5432 7.78899 85.6477C7.87249 85.7637 7.93699 85.9057 7.98649 86.0622C8.02399 86.2227 8.03849 86.4082 8.03849 86.6237L8.03849 87.8607L8.03899 87.8607ZM7.58899 87.3977L7.58899 86.6617C7.58899 86.4442 7.57099 86.2752 7.53649 86.1262C7.49399 85.9977 7.41399 85.9057 7.34099 85.8282C7.20476 85.7074 7.04013 85.6231 6.86249 85.5832C6.66499 85.5112 6.42949 85.4867 6.15249 85.4867C5.76449 85.4867 5.46749 85.5432 5.26249 85.6672C5.04549 85.7842 4.90499 85.9172 4.83549 86.0862C4.78349 86.2147 4.74849 86.4082 4.74849 86.6812L4.74849 87.3977L7.58849 87.3977L7.58899 87.3977ZM6.22149 82.3407C5.61149 82.3407 5.12349 82.1842 4.77449 81.8827C4.42499 81.5737 4.26099 81.1782 4.26099 80.7047C4.26099 80.3822 4.33399 80.1087 4.48849 79.8392C4.66586 79.5896 4.90594 79.3913 5.18449 79.2642C5.47949 79.1242 5.81949 79.0592 6.17749 79.0592C6.56149 79.0592 6.90149 79.1342 7.19749 79.2717C7.49399 79.4167 7.71999 79.6057 7.87299 79.8632C8.02449 80.1332 8.08649 80.3902 8.08649 80.7047C8.08649 81.0302 8.02449 81.3127 7.85899 81.5652C7.68449 81.8312 7.44899 82.0202 7.15399 82.1522C6.85977 82.2796 6.54209 82.3438 6.22149 82.3407V82.3407ZM6.22149 81.8797C6.70049 81.8797 7.04049 81.7672 7.29649 81.5407C7.4202 81.4398 7.5194 81.3121 7.5866 81.1673C7.65381 81.0225 7.68728 80.8643 7.68449 80.7047C7.68449 80.3582 7.55449 80.0837 7.29649 79.8552C7.03149 79.6382 6.66499 79.5222 6.17749 79.5222C5.87799 79.5222 5.61099 79.5697 5.39249 79.6747C5.16699 79.7587 4.98749 79.9082 4.86249 80.0892C4.73049 80.2582 4.67499 80.4742 4.67499 80.6887C4.67499 81.0252 4.80499 81.2912 5.03649 81.5332C5.27499 81.7592 5.67149 81.8797 6.22149 81.8797V81.8797Z" fill="#1D1D1B"/>
<mask id="mask0_16874_423515" style="mask-type:alpha" maskUnits="userSpaceOnUse" x="1" y="0" width="10" height="75">
<path d="M1.7251 0.961182L10.4911 0.961181L10.4911 74.2812L1.7251 74.2812L1.7251 0.961182Z" fill="white"/>
</mask>
<g mask="url(#mask0_16874_423515)">
<path fill-rule="evenodd" clip-rule="evenodd" d="M10.4311 52.7922L6.99263 52.7922L6.99263 51.7107C6.99263 51.4547 7.01413 51.2677 7.04463 51.1357C7.09663 50.9582 7.17213 50.7942 7.29713 50.6777C7.45524 50.5018 7.65733 50.3712 7.88263 50.2992C8.12113 50.2112 8.39163 50.1667 8.69613 50.1667C8.93026 50.1642 9.16362 50.194 9.38963 50.2552C9.59813 50.3097 9.76863 50.3837 9.89563 50.4802C10.0301 50.5677 10.1261 50.6587 10.2081 50.7617C10.2916 50.8667 10.3436 50.9902 10.3791 51.1357C10.4311 51.3002 10.4311 51.4662 10.4311 51.6517L10.4311 52.7922V52.7922ZM10.0301 52.3747L10.0301 51.7027C10.0301 51.4902 10.0091 51.3252 9.96013 51.2002C9.92842 51.0942 9.86782 50.9992 9.78513 50.9257C9.67713 50.8177 9.54113 50.7537 9.35063 50.6892C9.17613 50.6332 8.95763 50.6102 8.67813 50.6102C8.32563 50.6102 8.05163 50.6697 7.85963 50.7702C7.66763 50.8742 7.53713 51.0112 7.46663 51.1727C7.42513 51.2837 7.40163 51.4662 7.40163 51.7107L7.40163 52.3747L10.0301 52.3747V52.3747ZM10.4311 49.5832L6.99263 49.5832L6.99263 47.2837L7.40213 47.2837L7.40213 49.1692L8.45713 49.1692L8.45713 47.3997L8.86163 47.3997L8.86163 49.1697L10.0301 49.1697L10.0301 47.2147L10.4311 47.2147L10.4311 49.5832ZM9.22313 43.1352L9.35063 42.7132C9.72063 42.7907 9.99513 42.9582 10.2081 43.1752C10.4006 43.4252 10.4911 43.6897 10.4911 44.0327C10.4911 44.3662 10.4311 44.6407 10.2741 44.8612C10.1261 45.0737 9.90763 45.2432 9.61063 45.3562C9.31189 45.465 8.99608 45.5196 8.67813 45.5172C8.34013 45.5172 8.02513 45.4557 7.76013 45.3237C7.49513 45.2107 7.28513 45.0337 7.14613 44.7887C7.0064 44.5527 6.93379 44.283 6.93613 44.0087C6.93613 43.7107 7.02363 43.4382 7.19763 43.2127C7.37963 43.0027 7.62413 42.8447 7.93763 42.7642L8.05163 43.1702C7.79013 43.2477 7.60313 43.3607 7.51263 43.4937C7.37963 43.6417 7.32363 43.8152 7.32363 44.0327C7.32363 44.2777 7.39713 44.4827 7.51963 44.6407C7.63313 44.8012 7.81663 44.9177 8.02913 44.9817C8.24413 45.0497 8.46213 45.0737 8.67813 45.0737C8.98413 45.0737 9.23713 45.0417 9.45363 44.9657C9.67713 44.8887 9.84713 44.7602 9.95613 44.5957C10.0611 44.4307 10.0996 44.2507 10.0996 44.0637C10.0996 43.8287 10.0391 43.6252 9.89563 43.4607C9.74213 43.2962 9.51613 43.1752 9.22313 43.1357L9.22313 43.1352ZM8.76213 42.3147C8.19213 42.3147 7.73813 42.1747 7.41463 41.8842C7.10163 41.6077 6.93613 41.2442 6.93613 40.7982C6.93613 40.5052 7.01413 40.2357 7.16363 40.0057C7.31163 39.7682 7.51963 39.5922 7.80763 39.4672C8.06913 39.3372 8.37863 39.2817 8.72763 39.2817C9.07163 39.2817 9.38963 39.3377 9.65663 39.4702C9.93063 39.6117 10.1431 39.7892 10.2916 40.0262C10.4311 40.2552 10.4911 40.5237 10.4911 40.7982C10.4911 41.0967 10.4311 41.3657 10.2571 41.6077C10.1032 41.8415 9.88469 42.0257 9.62813 42.1377C9.35488 42.2562 9.05995 42.3164 8.76213 42.3147V42.3147ZM8.76563 41.8807C9.18513 41.8807 9.50563 41.7962 9.75063 41.5912C9.97713 41.3687 10.0996 41.1082 10.0996 40.7982C10.0996 40.4892 9.97713 40.2232 9.74213 40.0212C9.50613 39.8167 9.15813 39.7202 8.71913 39.7202C8.45163 39.7202 8.20063 39.7567 7.98763 39.8437C7.77263 39.9372 7.61763 40.0587 7.51263 40.2227C7.37963 40.3892 7.32363 40.5777 7.32363 40.7977C7.32363 41.0917 7.45013 41.3417 7.65863 41.5557C7.88263 41.7802 8.25263 41.8807 8.76563 41.8807V41.8807ZM10.4306 38.7507L6.99263 38.7507L6.99263 38.3357L10.0301 38.3357L10.0301 36.7697L10.4311 36.7697L10.4311 38.7512L10.4306 38.7507ZM8.76213 36.3937C8.19213 36.3937 7.73813 36.2507 7.41463 35.9662C7.10163 35.6887 6.93613 35.3252 6.93613 34.8772C6.93613 34.5837 7.01413 34.3097 7.16363 34.0887C7.31163 33.8522 7.51963 33.6667 7.80763 33.5347C8.06913 33.4167 8.37863 33.3527 8.72763 33.3527C9.07163 33.3527 9.38963 33.4167 9.65663 33.5582C9.93063 33.6712 10.1431 33.8767 10.2916 34.0972C10.4242 34.3357 10.4929 34.6043 10.4911 34.8772C10.4911 35.1832 10.4311 35.4442 10.2571 35.6772C10.1027 35.913 9.88461 36.1002 9.62813 36.2172C9.35063 36.3422 9.06313 36.3937 8.76213 36.3937V36.3937ZM8.76563 35.9662C9.18513 35.9662 9.50563 35.8597 9.75063 35.6462C9.86137 35.5512 9.95 35.4332 10.0103 35.3003C10.0706 35.1675 10.1011 35.0231 10.0996 34.8772C10.0996 34.5642 9.97713 34.3037 9.74213 34.0972C9.50613 33.8967 9.15813 33.7877 8.71913 33.7877C8.45163 33.7877 8.20063 33.8327 7.98763 33.9077C7.77263 34.0052 7.61763 34.1327 7.51263 34.3037C7.3859 34.4676 7.31919 34.67 7.32363 34.8772C7.32363 35.1697 7.45013 35.4362 7.65863 35.6457C7.88263 35.8597 8.25263 35.9662 8.76563 35.9662V35.9662ZM10.4306 32.8302L6.99263 32.8302L6.99263 32.1982L9.43613 31.4472L9.95613 31.2922C9.81713 31.2697 9.63913 31.1922 9.38963 31.1332L6.99263 30.3677L6.99263 29.7977L10.4311 29.7977L10.4311 30.2082L7.55463 30.2082L10.4311 31.1332L10.4311 31.4992L7.51263 32.4277L10.4311 32.4277L10.4311 32.8302L10.4306 32.8302ZM10.4306 29.1377L6.99263 29.1377L6.99263 27.9337C6.99263 27.6987 7.03263 27.5057 7.10163 27.3552C7.16868 27.2107 7.28271 27.0931 7.42513 27.0217C7.56763 26.9377 7.72013 26.8852 7.88263 26.8852C8.02513 26.8852 8.16563 26.9377 8.29563 27.0052C8.42713 27.0777 8.52163 27.1857 8.61413 27.3317C8.67463 27.1347 8.76563 27.0052 8.91463 26.8852C9.06263 26.7897 9.24963 26.7367 9.43613 26.7367C9.60363 26.7367 9.75113 26.7637 9.89563 26.8222C10.0301 26.8852 10.1431 26.9702 10.2081 27.0622C10.2916 27.1542 10.3436 27.2712 10.3791 27.4152C10.4311 27.5602 10.4311 27.7262 10.4311 27.9302L10.4311 29.1377L10.4306 29.1377ZM8.45163 28.7267L8.45163 28.0267C8.45163 27.8392 8.42663 27.7052 8.40963 27.6177C8.37883 27.5166 8.31167 27.4306 8.22113 27.3762C8.14763 27.3312 8.05163 27.3122 7.93813 27.3122C7.81663 27.3122 7.72063 27.3282 7.62413 27.3762C7.5389 27.4255 7.47643 27.5063 7.45013 27.6012C7.41513 27.6887 7.40213 27.8527 7.40213 28.0792L7.40213 28.7267L8.45213 28.7267L8.45163 28.7267ZM10.0301 28.7267L10.0301 27.9302C10.0301 27.7952 10.0301 27.6887 10.0216 27.6372C9.99992 27.5515 9.96446 27.47 9.91663 27.3957C9.86892 27.3297 9.80963 27.273 9.74163 27.2282C9.64345 27.1948 9.54033 27.1782 9.43663 27.1792C9.31563 27.1792 9.20263 27.1992 9.10163 27.2712C9.01125 27.327 8.94223 27.4115 8.90563 27.5112C8.86927 27.6655 8.85164 27.8236 8.85313 27.9822L8.85313 28.7272L10.0301 28.7272L10.0301 28.7267ZM6.99263 26.0832L10.4311 26.0832L10.4311 25.6662L6.99263 25.6662L6.99263 26.0832ZM10.4311 25.2717L6.99263 24.0532L6.99263 23.5957L10.4311 22.3032L10.4311 22.7732L9.38963 23.1472L9.38963 24.4722L10.4311 24.8267L10.4311 25.2717ZM9.02813 24.3517L9.02813 23.2812L8.06913 23.6062C7.77213 23.7112 7.54763 23.7887 7.34663 23.8377C7.57163 23.8757 7.80763 23.9292 8.02513 23.9982L9.02813 24.3517ZM4.11313 74.2812L4.08713 73.8822C4.26163 73.8587 4.40863 73.8182 4.51013 73.7507C4.61763 73.6782 4.70463 73.5682 4.77513 73.4287C4.83613 73.2957 4.88013 73.1267 4.88013 72.9407C4.88013 72.7877 4.84513 72.6402 4.80613 72.5137C4.76007 72.4083 4.68984 72.3153 4.60113 72.2422C4.48913 72.1887 4.40863 72.1487 4.28263 72.1487C4.18028 72.1459 4.08019 72.179 3.99963 72.2422C3.90901 72.3162 3.84223 72.4154 3.80763 72.5272C3.77313 72.6107 3.72013 72.8042 3.65063 73.0947C3.57763 73.3912 3.49063 73.5812 3.42863 73.6937C3.34113 73.8587 3.23663 73.9787 3.11163 74.0437C2.98913 74.1237 2.83213 74.1487 2.66663 74.1487C2.49963 74.1487 2.35163 74.1037 2.20013 74.0197C2.03363 73.9262 1.92963 73.7987 1.83913 73.6247C1.76261 73.4329 1.7239 73.2282 1.72513 73.0217C1.72513 72.8042 1.76863 72.5942 1.85513 72.4177C1.93513 72.2377 2.05163 72.0967 2.22613 71.9997C2.37963 71.9007 2.55263 71.8547 2.75363 71.8467L2.78763 72.2607C2.57913 72.2692 2.39763 72.3542 2.29963 72.4657C2.18763 72.5942 2.12163 72.7722 2.12163 73.0132C2.12163 73.2827 2.17913 73.4597 2.28163 73.5682C2.32339 73.6262 2.3787 73.6732 2.44275 73.705C2.50679 73.7368 2.57764 73.7525 2.64913 73.7507C2.70478 73.7522 2.7601 73.7418 2.81135 73.72C2.86259 73.6983 2.90856 73.6658 2.94613 73.6247C3.02413 73.5522 3.11113 73.3282 3.19313 72.9932C3.28413 72.6562 3.35013 72.4222 3.41613 72.2902C3.51113 72.1047 3.63313 71.9712 3.77313 71.8747C3.90363 71.8072 4.07813 71.7467 4.26163 71.7467C4.43063 71.7467 4.61763 71.8072 4.77513 71.9007C4.93513 71.9877 5.05513 72.1322 5.15963 72.3062C5.24663 72.4902 5.28963 72.6962 5.28963 72.9287C5.28963 73.2152 5.24663 73.4597 5.15063 73.6487C5.0561 73.8368 4.91055 73.9944 4.73063 74.1037C4.56563 74.2127 4.35563 74.2727 4.11313 74.2812V74.2812ZM1.79013 69.0832L1.79013 68.6692L3.77363 68.6692C4.11363 68.6692 4.38813 68.7012 4.60163 68.7817C4.80663 68.8467 4.96813 68.9752 5.10713 69.1767C5.22063 69.3617 5.29063 69.6067 5.29063 69.9082C5.29063 70.2092 5.22963 70.4512 5.11563 70.6362C5.02013 70.8332 4.84563 70.9627 4.64413 71.0512C4.42563 71.1317 4.14013 71.1667 3.77413 71.1667L1.78913 71.1667L1.78913 70.7447L3.77263 70.7447C4.07763 70.7447 4.28263 70.7197 4.42463 70.6722C4.56513 70.6207 4.68763 70.5322 4.74863 70.4157C4.83801 70.2762 4.88363 70.1133 4.87963 69.9477C4.87963 69.6392 4.80563 69.4102 4.65263 69.2922C4.48863 69.1557 4.20013 69.0832 3.77263 69.0832L1.79013 69.0832V69.0832ZM5.22963 67.9617L1.78963 67.9617L1.78963 66.7617C1.78963 66.5572 1.80713 66.4007 1.81763 66.2887C1.84263 66.1352 1.89963 65.9987 1.97763 65.8852C2.05663 65.7932 2.17013 65.7082 2.32713 65.6452C2.45663 65.5762 2.60513 65.5517 2.78463 65.5517C3.07063 65.5517 3.33613 65.6367 3.52863 65.8017C3.72913 65.9627 3.83363 66.2837 3.83363 66.7297L3.83363 67.5602L5.22863 67.5602L5.22863 67.9617L5.22963 67.9617ZM3.42913 67.5602L3.42913 66.7302C3.42913 66.4502 3.37213 66.2642 3.26013 66.1512C3.15513 66.0312 2.99813 65.9817 2.80263 65.9817C2.67156 65.9797 2.54227 66.0121 2.42763 66.0757C2.32763 66.1507 2.24763 66.2317 2.22663 66.3447C2.20063 66.4087 2.20063 66.5457 2.20063 66.7297L2.20063 67.5602L3.42913 67.5602V67.5602ZM5.22913 64.9932L1.79013 64.9932L1.79013 62.6932L2.20063 62.6932L2.20063 64.5782L3.24213 64.5782L3.24213 62.8082L3.66013 62.8082L3.66013 64.5782L4.83663 64.5782L4.83663 62.6287L5.22963 62.6287L5.22963 64.9932L5.22913 64.9932ZM5.22913 62.0322L1.79013 62.0322L1.79013 60.6197C1.79013 60.3507 1.81813 60.1252 1.88263 59.9852C1.93563 59.8317 2.04813 59.7242 2.20063 59.6272C2.36186 59.5385 2.54366 59.494 2.72763 59.4982C2.97713 59.4982 3.19063 59.5632 3.34163 59.7242C3.51163 59.8722 3.62113 60.0847 3.66913 60.3917C3.72063 60.2862 3.77413 60.1947 3.83413 60.1417C3.95713 60.0122 4.11413 59.9017 4.28313 59.7887L5.22963 59.2402L5.22963 59.7672L4.51063 60.1947C4.30413 60.3077 4.14063 60.4207 4.03563 60.4997C3.9527 60.5569 3.87639 60.6231 3.80813 60.6972C3.76797 60.7574 3.73838 60.824 3.72063 60.8942C3.69463 60.9537 3.69463 61.0227 3.69463 61.1307L3.69463 61.6137L5.22963 61.6137L5.22963 62.0322L5.22913 62.0322ZM3.31263 61.6137L3.31263 60.7137C3.31263 60.5152 3.28463 60.3667 3.24213 60.2622C3.19363 60.1547 3.13313 60.0692 3.03713 60.0122C2.94132 59.9616 2.8354 59.933 2.72713 59.9287C2.57963 59.9287 2.42713 59.9852 2.32713 60.0897C2.22663 60.1947 2.17063 60.3747 2.17063 60.6087L2.17063 61.6137L3.31263 61.6137V61.6137ZM1.79013 58.7747L5.22963 58.7747L5.22963 58.3447L1.78963 58.3447L1.78963 58.7747L1.79013 58.7747ZM5.22963 57.6112L1.78963 57.6112L1.78963 57.1777L4.48913 55.5157L1.78963 55.5157L1.78963 55.1067L5.22913 55.1067L5.22913 55.5407L2.52613 57.2017L5.22913 57.2017L5.22913 57.6117L5.22963 57.6112ZM5.22963 53.5937L2.20013 53.5937L2.20013 54.6367L1.79013 54.6367L1.79013 52.1252L2.20063 52.1252L2.20063 53.1662L5.22963 53.1662L5.22963 53.5937ZM5.22963 51.6787L1.78963 51.6787L1.78963 49.3817L2.20013 49.3817L2.20013 51.2607L3.24163 51.2607L3.24163 49.5077L3.65963 49.5077L3.65963 51.2607L4.83613 51.2607L4.83613 49.3092L5.22913 49.3092L5.22913 51.6782L5.22963 51.6787ZM5.22963 48.7277L1.78963 48.7277L1.78963 48.2842L4.48913 46.6357L1.78963 46.6357L1.78963 46.2322L5.22913 46.2322L5.22913 46.6582L2.52613 48.3247L5.22913 48.3247L5.22913 48.7277L5.22963 48.7277ZM5.22963 45.5177L1.78963 45.5177L1.78963 44.4302C1.78963 44.1737 1.80713 43.9962 1.83913 43.8552C1.88213 43.6702 1.95713 43.5252 2.07413 43.3852C2.23413 43.2237 2.42663 43.0992 2.66613 43.0157C2.93263 42.9311 3.21051 42.8877 3.49013 42.8872C3.74663 42.8872 3.98213 42.9307 4.19513 42.9712C4.38363 43.0387 4.56563 43.0992 4.68813 43.1962C4.83613 43.2767 4.91413 43.3802 5.00163 43.4902C5.07163 43.5772 5.12413 43.7102 5.16763 43.8667C5.21163 44.0092 5.22913 44.1737 5.22913 44.3792L5.22913 45.5172L5.22963 45.5177ZM4.83663 45.0982L4.83663 44.4282C4.83663 44.2132 4.80663 44.0442 4.74963 43.9312C4.72087 43.8249 4.66684 43.7271 4.59213 43.6462C4.47163 43.5497 4.33263 43.4612 4.14013 43.4212C3.96513 43.3527 3.74713 43.3312 3.49063 43.3312C3.12063 43.3312 2.85013 43.3802 2.64963 43.4937C2.47113 43.5977 2.32763 43.7217 2.26163 43.8827C2.22663 44.0042 2.20063 44.1892 2.20063 44.4302L2.20063 45.0982L4.83663 45.0982ZM5.22963 42.2992L1.78963 42.2992L1.78963 40.0057L2.20013 40.0057L2.20013 41.8807L3.24163 41.8807L3.24163 40.1307L3.65963 40.1307L3.65963 41.8807L4.83613 41.8807L4.83613 39.9372L5.22913 39.9372L5.22913 42.2992L5.22963 42.2992ZM5.22963 39.3542L1.78963 39.3542L1.78963 38.9287L4.48913 37.2557L1.78963 37.2557L1.78963 36.8562L5.22913 36.8562L5.22913 37.2877L2.52613 38.9447L5.22913 38.9447L5.22913 39.3542L5.22963 39.3542ZM4.00863 33.8837L4.13963 33.4537C4.50963 33.5342 4.80613 33.7097 4.99313 33.9352C5.18513 34.1687 5.29013 34.4542 5.29013 34.7797C5.29013 35.1097 5.21163 35.3922 5.05513 35.6017C4.90563 35.8392 4.68813 35.9952 4.40863 36.1072C4.11363 36.2122 3.80763 36.2657 3.49013 36.2657C3.12013 36.2657 2.80913 36.2122 2.55263 36.0677C2.2959 35.9641 2.07937 35.7805 1.93513 35.5442C1.80713 35.3092 1.72513 35.0412 1.72513 34.7692C1.72513 34.4547 1.80713 34.1807 1.98163 33.9687C2.17013 33.7422 2.41413 33.5937 2.73563 33.5072L2.83213 33.9082C2.58363 34.0052 2.39763 34.0972 2.29313 34.2382C2.17013 34.3947 2.11313 34.5642 2.11313 34.7802C2.11313 35.0217 2.17913 35.2317 2.30963 35.3897C2.43863 35.5497 2.60463 35.6702 2.80963 35.7427C3.02463 35.8022 3.25963 35.8397 3.49013 35.8397C3.77313 35.8397 4.02613 35.8022 4.24363 35.7217C4.47113 35.6377 4.62613 35.5167 4.73113 35.3407C4.83613 35.1832 4.89713 35.0022 4.89713 34.8097C4.89713 34.5642 4.83613 34.3842 4.67563 34.2067C4.53563 34.0492 4.30913 33.9357 4.00863 33.8837V33.8837ZM1.78963 32.8742L5.22913 32.8742L5.22913 32.4522L1.78963 32.4522L1.78963 32.8742ZM5.22913 32.0577L1.78963 30.8312L1.78963 30.3777L5.22913 29.0732L5.22913 29.5647L4.19563 29.9297L4.19563 31.2697L5.22913 31.6087L5.22913 32.0582L5.22913 32.0577ZM3.81663 31.1327L3.81663 30.0547L2.86163 30.3932C2.57913 30.4892 2.32663 30.5707 2.14763 30.6217C2.36263 30.6617 2.58363 30.7137 2.80913 30.7942L3.81663 31.1327ZM5.22913 27.4887L1.78963 27.4887L1.78963 25.3487L2.20013 25.3487L2.20013 27.0772L3.26013 27.0772L3.26013 25.5802L3.66913 25.5802L3.66913 27.0772L5.22913 27.0772L5.22913 27.4887ZM1.78963 24.7297L5.22913 24.7297L5.22913 24.3107L1.78963 24.3107L1.78963 24.7297ZM5.22913 23.5632L1.78963 23.5632L1.78963 23.1472L4.48913 21.4707L1.78963 21.4707L1.78963 21.0617L5.22913 21.0617L5.22913 21.4902L2.52613 23.1677L5.22913 23.1677L5.22913 23.5632V23.5632ZM5.22913 20.7102L1.78963 19.4792L1.78963 19.0342L5.22913 17.7352L5.22913 18.2092L4.19563 18.5957L4.19563 19.9177L5.22913 20.2692L5.22913 20.7102ZM3.81663 19.7887L3.81663 18.7127L2.86163 19.0412C2.57913 19.1477 2.32663 19.2312 2.14763 19.2662C2.36263 19.3282 2.58363 19.3662 2.80913 19.4407L3.81663 19.7887V19.7887ZM5.22913 17.4087L1.78963 17.4087L1.78963 16.9702L4.48913 15.3087L1.78963 15.3087L1.78963 14.9027L5.22913 14.9027L5.22913 15.3377L2.52613 16.9977L5.22913 16.9977L5.22913 17.4087ZM4.00863 11.9137L4.13963 11.5042C4.50963 11.6037 4.80613 11.7492 4.99313 11.9777C5.18513 12.2147 5.29013 12.4837 5.29013 12.8187C5.29013 13.1637 5.21163 13.4412 5.05513 13.6587C4.90563 13.8737 4.68813 14.0377 4.40863 14.1412C4.1155 14.2539 3.80418 14.3118 3.49013 14.3122C3.12013 14.3122 2.80913 14.2532 2.55263 14.1297C2.28213 13.9972 2.07413 13.8247 1.93513 13.5897C1.80713 13.3497 1.72513 13.0967 1.72513 12.8062C1.72513 12.4937 1.80713 12.2362 1.98163 12.0072C2.17013 11.7922 2.41413 11.6472 2.73563 11.5557L2.83213 11.9747C2.58363 12.0587 2.39763 12.1502 2.29313 12.2902C2.17013 12.4327 2.11313 12.6017 2.11313 12.8187C2.11313 13.0672 2.17913 13.2772 2.30963 13.4347C2.43863 13.5997 2.60463 13.7157 2.80963 13.7797C3.02463 13.8477 3.25963 13.8932 3.49013 13.8932C3.77313 13.8932 4.02613 13.8477 4.24363 13.7667C4.47113 13.6802 4.62613 13.5542 4.73113 13.3892C4.83613 13.2317 4.89713 13.0507 4.89713 12.8517C4.89713 12.6132 4.83613 12.4247 4.67563 12.2552C4.53563 12.0782 4.30913 11.9777 4.00863 11.9137V11.9137ZM1.78963 10.9167L5.22913 10.9167L5.22913 10.4947L1.78963 10.4947L1.78963 10.9167ZM5.22913 9.74618L1.78963 9.74618L1.78963 7.44868L2.20013 7.44868L2.20013 9.33118L3.24163 9.33118L3.24163 7.56868L3.65963 7.56868L3.65963 9.33168L4.83613 9.33168L4.83613 7.36868L5.22913 7.36868L5.22913 9.74618ZM5.22913 6.78568L1.78963 6.78568L1.78963 5.38218C1.78963 5.09218 1.81763 4.88368 1.88213 4.72868C1.93513 4.57768 2.04763 4.46118 2.20013 4.37568C2.36213 4.29068 2.54413 4.24718 2.72713 4.24718C2.97663 4.24718 3.19013 4.31968 3.34113 4.46118C3.51113 4.60518 3.62063 4.83068 3.66863 5.14468C3.72013 5.03218 3.77363 4.93868 3.83363 4.88968C3.95663 4.77118 4.11363 4.64518 4.28263 4.54818L5.22913 3.99118L5.22913 4.51968L4.51013 4.92768C4.30363 5.05168 4.14013 5.16418 4.03513 5.24468C3.93863 5.32218 3.84613 5.38718 3.80763 5.44168C3.76791 5.50214 3.73835 5.56868 3.72013 5.63868C3.69413 5.68668 3.69413 5.76718 3.69413 5.87668L3.69413 6.36668L5.22913 6.36668L5.22913 6.78568V6.78568ZM3.31213 6.36668L3.31213 5.46618C3.31213 5.26918 3.28413 5.11268 3.24163 5.01618C3.19313 4.89968 3.13263 4.82268 3.03663 4.77118C2.93663 4.71718 2.83213 4.67468 2.72663 4.67468C2.57913 4.67468 2.42663 4.72868 2.32663 4.83568C2.22613 4.95518 2.17013 5.12418 2.17013 5.35768L2.17013 6.36668L3.31213 6.36668V6.36668ZM5.22913 3.92668L1.78963 2.70668L1.78963 2.25968L5.22913 0.961181L5.22913 1.43968L4.19563 1.80918L4.19563 3.14018L5.22913 3.47818L5.22913 3.92668V3.92668ZM3.81663 3.02068L3.81663 1.93068L2.86163 2.27918C2.57913 2.38618 2.32663 2.45018 2.14763 2.49918C2.36263 2.54218 2.58363 2.59018 2.80913 2.66668L3.81663 3.02068Z" fill="#1D1D1B"/>
</g>
<mask id="mask1_16874_423515" style="mask-type:alpha" maskUnits="userSpaceOnUse" x="0" y="0" width="12" height="120">
<path d="M5.16111e-06 119.033L11.9805 119.033L11.9805 0.960693L0 0.960693L5.16111e-06 119.033Z" fill="white"/>
</mask>
<g mask="url(#mask1_16874_423515)">
<path fill-rule="evenodd" clip-rule="evenodd" d="M1.84593e-06 119.033L1.442 119.033L1.442 76.8032L0 76.8032L1.84593e-06 119.033ZM10.535 119.033L11.9805 119.033L11.9805 76.8032L10.5355 76.8032L10.5355 119.033L10.535 119.033Z" fill="#1D1D1B"/>
</g>
</g>
<defs>
<clipPath id="clip0_16874_423515">
<rect width="118.5" height="12" fill="white" transform="translate(0 119.126) rotate(-90)"/>
</clipPath>
</defs>
</svg>
