<svg width="119" height="13" viewBox="0 0 119 13" fill="none" xmlns="http://www.w3.org/2000/svg">
<g clip-path="url(#clip0_16878_429245)">
<path fill-rule="evenodd" clip-rule="evenodd" d="M4.00368 8.66618L2.68068 4.94768H3.17518L4.06018 7.64118C4.13268 7.87168 4.20518 8.07618 4.25418 8.25118C4.30018 8.05868 4.36418 7.85968 4.42918 7.64118L5.35918 4.94768H5.82518L4.47418 8.66618H4.00368ZM8.48868 4.94768V8.66618H8.95468V4.94718H8.48918L8.48868 4.94768ZM13.5287 7.19618V6.77018H14.9887V8.14618C14.7587 8.34718 14.5382 8.48618 14.3087 8.58218C14.0637 8.67818 13.8222 8.71368 13.5722 8.71368C13.2357 8.71368 12.9247 8.65168 12.6607 8.50018C12.3702 8.34718 12.1652 8.12118 12.0282 7.81568C11.8832 7.52868 11.8192 7.18868 11.8192 6.81368C11.8149 6.46553 11.8862 6.12059 12.0282 5.80268C12.1652 5.48918 12.3652 5.27068 12.6362 5.11568C12.8922 4.96118 13.1982 4.88818 13.5282 4.88818C13.7812 4.88818 14.0112 4.90918 14.2032 5.01018C14.3915 5.08908 14.5565 5.21471 14.6827 5.37518C14.7957 5.53218 14.8767 5.73318 14.9437 5.98418L14.5297 6.10668C14.4812 5.91668 14.4167 5.77718 14.3412 5.66368C14.2523 5.55258 14.1395 5.46301 14.0112 5.40168C13.8702 5.33168 13.7057 5.30218 13.5282 5.30218C13.3307 5.30218 13.1497 5.33168 12.9972 5.41068C12.8517 5.47168 12.7197 5.57618 12.6362 5.67268C12.5427 5.79418 12.4702 5.91668 12.4262 6.03768C12.3302 6.27768 12.2897 6.52868 12.2897 6.78768C12.2897 7.11968 12.3297 7.40268 12.4422 7.64118C12.5507 7.84568 12.6922 8.02368 12.9007 8.12468C13.1017 8.22968 13.3192 8.28518 13.5482 8.28518C13.7382 8.28518 13.9272 8.24368 14.1232 8.16368C14.2765 8.09645 14.4201 8.00901 14.5502 7.90368V7.19618H13.5282H13.5287ZM17.9207 4.94768V8.66618H18.3827V4.94718L17.9207 4.94718V4.94768ZM21.3407 8.66618V4.94718H21.8057V8.21518H23.4867V8.66518H21.3407V8.66618ZM25.8372 8.66618L27.1552 4.94768H27.6467L29.0542 8.66618H28.5317L28.1287 7.54118H26.6977L26.3157 8.66618H25.8372ZM26.8217 7.13668H27.9932L27.6312 6.10668C27.5232 5.79418 27.4342 5.53218 27.3892 5.33168C27.3542 5.57618 27.2842 5.80268 27.2012 6.03718L26.8217 7.13718V7.13668ZM31.5922 8.66618V4.94718H32.7912C33.0447 4.94718 33.2462 4.96068 33.3912 4.99618C33.5847 5.04518 33.7572 5.13618 33.8972 5.27018C34.0792 5.43218 34.2082 5.64518 34.2997 5.90168C34.3967 6.15818 34.4402 6.45518 34.4402 6.78718C34.4402 7.07818 34.4047 7.32718 34.3352 7.54118C34.2837 7.75768 34.2082 7.92868 34.1142 8.07618C34.0102 8.21518 33.9097 8.32918 33.8052 8.41618C33.6892 8.49968 33.5472 8.56418 33.3907 8.61368C33.2302 8.65118 33.0447 8.66568 32.8292 8.66568H31.5922V8.66618ZM32.0552 8.21618H32.7912C33.0087 8.21618 33.1777 8.19818 33.3267 8.16368C33.4552 8.12118 33.5472 8.04118 33.6247 7.96818C33.7455 7.83196 33.8298 7.66733 33.8697 7.48968C33.9417 7.29218 33.9662 7.05668 33.9662 6.77968C33.9662 6.39168 33.9097 6.09468 33.7857 5.88968C33.6687 5.67268 33.5357 5.53218 33.3667 5.46268C33.2382 5.41068 33.0447 5.37568 32.7717 5.37568H32.0552V8.21568V8.21618ZM37.1122 6.84868C37.1122 6.23868 37.2687 5.75068 37.5702 5.40168C37.8792 5.05218 38.2747 4.88818 38.7482 4.88818C39.0707 4.88818 39.3442 4.96118 39.6137 5.11568C39.8632 5.29305 40.0616 5.53314 40.1887 5.81168C40.3287 6.10668 40.3937 6.44668 40.3937 6.80468C40.3937 7.18868 40.3187 7.52868 40.1812 7.82468C40.0362 8.12118 39.8472 8.34718 39.5897 8.50018C39.3197 8.65168 39.0627 8.71368 38.7482 8.71368C38.4227 8.71368 38.1402 8.65168 37.8877 8.48618C37.6217 8.31168 37.4327 8.07618 37.3007 7.78118C37.1733 7.48696 37.1091 7.16928 37.1122 6.84868ZM37.5732 6.84868C37.5732 7.32768 37.6857 7.66768 37.9122 7.92368C38.0131 8.0474 38.1408 8.14659 38.2856 8.2138C38.4304 8.28101 38.5886 8.31448 38.7482 8.31168C39.0947 8.31168 39.3692 8.18168 39.5977 7.92368C39.8147 7.65868 39.9307 7.29218 39.9307 6.80468C39.9307 6.50518 39.8832 6.23818 39.7782 6.01968C39.6942 5.79418 39.5447 5.61468 39.3637 5.48968C39.1947 5.35768 38.9787 5.30218 38.7642 5.30218C38.4277 5.30218 38.1617 5.43218 37.9197 5.66368C37.6937 5.90218 37.5732 6.29868 37.5732 6.84868Z" fill="#1D1D1B"/>
<mask id="mask0_16878_429245" style="mask-type:alpha" maskUnits="userSpaceOnUse" x="45" y="2" width="74" height="10">
<path d="M118.492 2.35205V11.1181L45.1717 11.1181V2.35205L118.492 2.35205Z" fill="white"/>
</mask>
<g mask="url(#mask0_16878_429245)">
<path fill-rule="evenodd" clip-rule="evenodd" d="M66.6607 11.0581V7.61958H67.7422C67.9982 7.61958 68.1852 7.64108 68.3172 7.67158C68.4947 7.72358 68.6587 7.79908 68.7752 7.92408C68.9511 8.0822 69.0817 8.28428 69.1537 8.50958C69.2417 8.74808 69.2862 9.01858 69.2862 9.32308C69.2887 9.55721 69.2589 9.79057 69.1977 10.0166C69.1432 10.2251 69.0692 10.3956 68.9727 10.5226C68.8852 10.6571 68.7942 10.7531 68.6912 10.8351C68.5862 10.9186 68.4627 10.9706 68.3172 11.0061C68.1527 11.0581 67.9867 11.0581 67.8012 11.0581H66.6607ZM67.0782 10.6571H67.7502C67.9627 10.6571 68.1277 10.6361 68.2527 10.5871C68.3587 10.5554 68.4537 10.4948 68.5272 10.4121C68.6352 10.3041 68.6992 10.1681 68.7637 9.97758C68.8197 9.80308 68.8427 9.58458 68.8427 9.30508C68.8427 8.95258 68.7832 8.67858 68.6827 8.48658C68.5787 8.29458 68.4417 8.16408 68.2802 8.09358C68.1692 8.05208 67.9867 8.02858 67.7422 8.02858H67.0782V10.6571ZM69.8697 11.0581V7.61958H72.1692V8.02908H70.2837V9.08408H72.0532V9.48858H70.2832V10.6571H72.2382V11.0581H69.8697ZM76.3177 9.85008L76.7397 9.97758C76.6622 10.3476 76.4947 10.6221 76.2777 10.8351C76.0277 11.0276 75.7632 11.1181 75.4202 11.1181C75.0867 11.1181 74.8122 11.0581 74.5917 10.9011C74.3792 10.7531 74.2097 10.5346 74.0967 10.2376C73.9878 9.93884 73.9333 9.62303 73.9357 9.30508C73.9357 8.96708 73.9972 8.65208 74.1292 8.38708C74.2422 8.12208 74.4192 7.91208 74.6642 7.77308C74.9002 7.63336 75.1699 7.56074 75.4442 7.56308C75.7422 7.56308 76.0147 7.65058 76.2402 7.82458C76.4502 8.00658 76.6082 8.25108 76.6887 8.56458L76.2827 8.67858C76.2052 8.41708 76.0922 8.23008 75.9592 8.13958C75.8112 8.00658 75.6377 7.95058 75.4202 7.95058C75.1752 7.95058 74.9702 8.02408 74.8122 8.14658C74.6517 8.26008 74.5352 8.44358 74.4712 8.65608C74.4032 8.87108 74.3792 9.08908 74.3792 9.30508C74.3792 9.61108 74.4112 9.86408 74.4872 10.0806C74.5642 10.3041 74.6927 10.4741 74.8572 10.5831C75.0222 10.6881 75.2022 10.7266 75.3892 10.7266C75.6242 10.7266 75.8277 10.6661 75.9922 10.5226C76.1567 10.3691 76.2777 10.1431 76.3172 9.85008H76.3177ZM77.1382 9.38908C77.1382 8.81908 77.2782 8.36508 77.5687 8.04158C77.8452 7.72858 78.2087 7.56308 78.6547 7.56308C78.9477 7.56308 79.2172 7.64108 79.4472 7.79058C79.6847 7.93858 79.8607 8.14658 79.9857 8.43458C80.1157 8.69608 80.1712 9.00558 80.1712 9.35458C80.1712 9.69858 80.1152 10.0166 79.9827 10.2836C79.8412 10.5576 79.6637 10.7701 79.4267 10.9186C79.1977 11.0581 78.9292 11.1181 78.6547 11.1181C78.3562 11.1181 78.0872 11.0581 77.8452 10.8841C77.6114 10.7302 77.4272 10.5116 77.3152 10.2551C77.1967 9.98183 77.1364 9.6869 77.1382 9.38908ZM77.5722 9.39258C77.5722 9.81208 77.6567 10.1326 77.8617 10.3776C78.0842 10.6041 78.3447 10.7266 78.6547 10.7266C78.9637 10.7266 79.2297 10.6041 79.4317 10.3691C79.6362 10.1331 79.7327 9.78508 79.7327 9.34608C79.7327 9.07858 79.6962 8.82758 79.6092 8.61458C79.5157 8.39958 79.3942 8.24458 79.2302 8.13958C79.0637 8.00658 78.8752 7.95058 78.6552 7.95058C78.3612 7.95058 78.1112 8.07708 77.8972 8.28558C77.6727 8.50958 77.5722 8.87958 77.5722 9.39258ZM80.7022 11.0576V7.61958H81.1172V10.6571H82.6832V11.0581H80.7017L80.7022 11.0576ZM83.0592 9.38908C83.0592 8.81908 83.2022 8.36508 83.4867 8.04158C83.7642 7.72858 84.1277 7.56308 84.5757 7.56308C84.8692 7.56308 85.1432 7.64108 85.3642 7.79058C85.6007 7.93858 85.7862 8.14658 85.9182 8.43458C86.0362 8.69608 86.1002 9.00558 86.1002 9.35458C86.1002 9.69858 86.0362 10.0166 85.8947 10.2836C85.7817 10.5576 85.5762 10.7701 85.3557 10.9186C85.1172 11.0511 84.8485 11.1198 84.5757 11.1181C84.2697 11.1181 84.0087 11.0581 83.7757 10.8841C83.5399 10.7297 83.3526 10.5116 83.2357 10.2551C83.1107 9.97758 83.0592 9.69008 83.0592 9.38908ZM83.4867 9.39258C83.4867 9.81208 83.5932 10.1326 83.8067 10.3776C83.9017 10.4883 84.0197 10.5769 84.1525 10.6372C84.2854 10.6975 84.4298 10.728 84.5757 10.7266C84.8887 10.7266 85.1492 10.6041 85.3557 10.3691C85.5562 10.1331 85.6652 9.78508 85.6652 9.34608C85.6652 9.07858 85.6202 8.82758 85.5452 8.61458C85.4477 8.39958 85.3202 8.24458 85.1492 8.13958C84.9853 8.01285 84.7829 7.94615 84.5757 7.95058C84.2832 7.95058 84.0167 8.07708 83.8072 8.28558C83.5932 8.50958 83.4867 8.87958 83.4867 9.39258ZM86.6227 11.0576V7.61958H87.2547L88.0057 10.0631L88.1607 10.5831C88.1832 10.4441 88.2607 10.2661 88.3197 10.0166L89.0852 7.61958H89.6552V11.0581H89.2447V8.18158L88.3197 11.0581H87.9537L87.0252 8.13958V11.0581H86.6227V11.0576ZM90.3152 11.0576V7.61958H91.5192C91.7542 7.61958 91.9472 7.65958 92.0977 7.72858C92.2422 7.79563 92.3598 7.90966 92.4312 8.05208C92.5152 8.19458 92.5677 8.34708 92.5677 8.50958C92.5677 8.65208 92.5152 8.79258 92.4477 8.92258C92.3752 9.05408 92.2672 9.14858 92.1212 9.24108C92.3182 9.30158 92.4477 9.39258 92.5677 9.54158C92.6632 9.68958 92.7162 9.87658 92.7162 10.0631C92.7162 10.2306 92.6892 10.3781 92.6307 10.5226C92.5677 10.6571 92.4827 10.7701 92.3907 10.8351C92.2987 10.9186 92.1817 10.9706 92.0377 11.0061C91.8927 11.0581 91.7267 11.0581 91.5227 11.0581H90.3152V11.0576ZM90.7262 9.07858H91.4262C91.6137 9.07858 91.7477 9.05358 91.8352 9.03658C91.9362 9.00578 92.0223 8.93862 92.0767 8.84808C92.1217 8.77458 92.1407 8.67858 92.1407 8.56508C92.1407 8.44358 92.1247 8.34758 92.0767 8.25108C92.0274 8.16585 91.9466 8.10338 91.8517 8.07708C91.7642 8.04208 91.6002 8.02908 91.3737 8.02908H90.7262V9.07908V9.07858ZM90.7262 10.6571H91.5227C91.6577 10.6571 91.7642 10.6571 91.8157 10.6486C91.9013 10.6269 91.9829 10.5914 92.0572 10.5436C92.1232 10.4959 92.1799 10.4366 92.2247 10.3686C92.2581 10.2704 92.2747 10.1673 92.2737 10.0636C92.2737 9.94258 92.2537 9.82958 92.1817 9.72858C92.1259 9.6382 92.0414 9.56918 91.9417 9.53258C91.7874 9.49622 91.6292 9.4786 91.4707 9.48008H90.7257V10.6571H90.7262ZM93.3697 7.61958V11.0581H93.7867V7.61958H93.3697ZM94.1812 11.0581L95.3997 7.61958H95.8572L97.1497 11.0581H96.6797L96.3057 10.0166L94.9807 10.0166L94.6262 11.0581H94.1812ZM95.1012 9.65508H96.1717L95.8467 8.69608C95.7417 8.39908 95.6642 8.17458 95.6152 7.97358C95.5772 8.19858 95.5237 8.43458 95.4547 8.65208L95.1012 9.65508ZM45.1717 4.74008L45.5707 4.71408C45.5942 4.88858 45.6347 5.03558 45.7022 5.13708C45.7747 5.24458 45.8847 5.33158 46.0242 5.40208C46.1572 5.46308 46.3262 5.50708 46.5122 5.50708C46.6652 5.50708 46.8127 5.47208 46.9392 5.43308C47.0445 5.38702 47.1376 5.31679 47.2107 5.22808C47.2642 5.11608 47.3042 5.03558 47.3042 4.90958C47.3069 4.80723 47.2739 4.70714 47.2107 4.62658C47.1366 4.53596 47.0375 4.46918 46.9257 4.43458C46.8422 4.40008 46.6487 4.34708 46.3582 4.27758C46.0617 4.20458 45.8717 4.11758 45.7592 4.05558C45.5942 3.96808 45.4742 3.86358 45.4092 3.73858C45.3292 3.61608 45.3042 3.45908 45.3042 3.29358C45.3042 3.12658 45.3492 2.97858 45.4332 2.82708C45.5267 2.66058 45.6542 2.55658 45.8282 2.46608C46.02 2.38956 46.2247 2.35085 46.4312 2.35208C46.6487 2.35208 46.8587 2.39558 47.0352 2.48208C47.2152 2.56208 47.3562 2.67858 47.4532 2.85308C47.5522 3.00658 47.5982 3.17958 47.6062 3.38058L47.1922 3.41458C47.1837 3.20608 47.0987 3.02458 46.9872 2.92658C46.8587 2.81458 46.6807 2.74858 46.4397 2.74858C46.1702 2.74858 45.9932 2.80608 45.8847 2.90858C45.8266 2.95034 45.7797 3.00565 45.7479 3.06969C45.7161 3.13374 45.7004 3.20459 45.7022 3.27608C45.7007 3.33173 45.7111 3.38705 45.7329 3.4383C45.7546 3.48954 45.7871 3.53551 45.8282 3.57308C45.9007 3.65108 46.1247 3.73808 46.4597 3.82008C46.7967 3.91108 47.0307 3.97708 47.1627 4.04308C47.3482 4.13808 47.4817 4.26008 47.5782 4.40008C47.6457 4.53058 47.7062 4.70508 47.7062 4.88858C47.7062 5.05758 47.6457 5.24458 47.5522 5.40208C47.4652 5.56208 47.3207 5.68208 47.1467 5.78658C46.9627 5.87358 46.7567 5.91658 46.5242 5.91658C46.2377 5.91658 45.9932 5.87358 45.8042 5.77758C45.6161 5.68305 45.4584 5.5375 45.3492 5.35758C45.2402 5.19258 45.1802 4.98258 45.1717 4.74008ZM50.3697 2.41708H50.7837V4.40058C50.7837 4.74058 50.7517 5.01508 50.6712 5.22858C50.6062 5.43358 50.4777 5.59508 50.2762 5.73408C50.0912 5.84758 49.8462 5.91758 49.5447 5.91758C49.2437 5.91758 49.0017 5.85658 48.8167 5.74258C48.6197 5.64708 48.4902 5.47258 48.4017 5.27108C48.3212 5.05258 48.2862 4.76708 48.2862 4.40108V2.41608H48.7082V4.39958C48.7082 4.70458 48.7332 4.90958 48.7807 5.05158C48.8322 5.19208 48.9207 5.31458 49.0372 5.37558C49.1766 5.46496 49.3396 5.51058 49.5052 5.50658C49.8137 5.50658 50.0427 5.43258 50.1607 5.27958C50.2972 5.11558 50.3697 4.82708 50.3697 4.39958V2.41708ZM51.4912 5.85658V2.41658H52.6912C52.8957 2.41658 53.0522 2.43408 53.1642 2.44458C53.3177 2.46958 53.4542 2.52658 53.5677 2.60458C53.6597 2.68358 53.7447 2.79708 53.8077 2.95408C53.8767 3.08358 53.9012 3.23208 53.9012 3.41158C53.9012 3.69758 53.8162 3.96308 53.6512 4.15558C53.4902 4.35608 53.1692 4.46058 52.7232 4.46058H51.8927V5.85558H51.4912V5.85658ZM51.8927 4.05608L52.7227 4.05608C53.0027 4.05608 53.1887 3.99908 53.3017 3.88708C53.4217 3.78208 53.4712 3.62508 53.4712 3.42958C53.4732 3.29851 53.4408 3.16922 53.3772 3.05458C53.3022 2.95458 53.2212 2.87458 53.1082 2.85358C53.0442 2.82758 52.9072 2.82758 52.7232 2.82758H51.8927V4.05608ZM54.4597 5.85608V2.41708H56.7597V2.82758H54.8747V3.86908H56.6447V4.28708H54.8747V5.46358H56.8242V5.85658H54.4597V5.85608ZM57.4207 5.85608V2.41708L58.8332 2.41708C59.1022 2.41708 59.3277 2.44508 59.4677 2.50958C59.6212 2.56258 59.7287 2.67508 59.8257 2.82758C59.9144 2.98881 59.9589 3.17061 59.9547 3.35458C59.9547 3.60408 59.8897 3.81758 59.7287 3.96858C59.5807 4.13858 59.3682 4.24808 59.0612 4.29608C59.1667 4.34758 59.2582 4.40108 59.3112 4.46108C59.4407 4.58408 59.5512 4.74108 59.6642 4.91008L60.2127 5.85658H59.6857L59.2582 5.13758C59.1452 4.93108 59.0322 4.76758 58.9532 4.66258C58.896 4.57965 58.8298 4.50334 58.7557 4.43508C58.6955 4.39492 58.6289 4.36533 58.5587 4.34758C58.4992 4.32158 58.4302 4.32158 58.3222 4.32158H57.8392V5.85658H57.4207V5.85608ZM57.8392 3.93958H58.7392C58.9377 3.93958 59.0862 3.91158 59.1907 3.86908C59.2982 3.82058 59.3837 3.76008 59.4407 3.66408C59.4913 3.56827 59.5198 3.46235 59.5242 3.35408C59.5242 3.20658 59.4677 3.05408 59.3632 2.95408C59.2582 2.85358 59.0782 2.79758 58.8442 2.79758L57.8392 2.79758V3.93958ZM60.6782 2.41708V5.85658H61.1082V2.41658H60.6782V2.41708ZM61.8417 5.85658V2.41658H62.2752L63.9372 5.11608V2.41658H64.3462V5.85608H63.9122L62.2512 3.15308V5.85608H61.8412L61.8417 5.85658ZM65.8592 5.85658V2.82708H64.8162V2.41708L67.3277 2.41708V2.82758H66.2867V5.85658H65.8592ZM67.7742 5.85658V2.41658H70.0712V2.82708H68.1922V3.86858L69.9452 3.86858V4.28658H68.1922V5.46308H70.1437V5.85608H67.7747L67.7742 5.85658ZM70.7252 5.85658V2.41658H71.1687L72.8172 5.11608V2.41658H73.2207V5.85608H72.7947L71.1282 3.15308V5.85608H70.7252V5.85658ZM73.9352 5.85658V2.41658H75.0227C75.2792 2.41658 75.4567 2.43408 75.5977 2.46608C75.7827 2.50908 75.9277 2.58408 76.0677 2.70108C76.2292 2.86108 76.3537 3.05358 76.4372 3.29308C76.5218 3.55958 76.5652 3.83746 76.5657 4.11708C76.5657 4.37358 76.5222 4.60908 76.4817 4.82208C76.4142 5.01058 76.3537 5.19258 76.2567 5.31508C76.1762 5.46308 76.0727 5.54108 75.9627 5.62858C75.8757 5.69858 75.7427 5.75108 75.5862 5.79458C75.4437 5.83858 75.2792 5.85608 75.0737 5.85608H73.9357L73.9352 5.85658ZM74.3547 5.46358H75.0247C75.2397 5.46358 75.4087 5.43358 75.5217 5.37658C75.628 5.34782 75.7258 5.29379 75.8067 5.21908C75.9032 5.09858 75.9917 4.95958 76.0317 4.76708C76.1002 4.59208 76.1217 4.37408 76.1217 4.11758C76.1217 3.74758 76.0727 3.47708 75.9592 3.27658C75.8552 3.09808 75.7312 2.95458 75.5702 2.88858C75.4487 2.85358 75.2637 2.82758 75.0227 2.82758H74.3547V5.46358ZM77.1537 5.85658V2.41658H79.4472V2.82708H77.5722V3.86858H79.3222V4.28658H77.5722V5.46308H79.5157V5.85608H77.1537V5.85658ZM80.0987 5.85658V2.41658L80.5242 2.41658L82.1972 5.11608V2.41658H82.5967V5.85608H82.1652L80.5082 3.15308V5.85608H80.0987V5.85658ZM85.5692 4.63558L85.9992 4.76658C85.9187 5.13658 85.7432 5.43308 85.5177 5.62008C85.2842 5.81208 84.9987 5.91708 84.6732 5.91708C84.3432 5.91708 84.0607 5.83858 83.8512 5.68208C83.6137 5.53258 83.4577 5.31508 83.3457 5.03558C83.2407 4.74058 83.1872 4.43458 83.1872 4.11708C83.1872 3.74708 83.2407 3.43608 83.3852 3.17958C83.4888 2.92285 83.6724 2.70633 83.9087 2.56208C84.1437 2.43408 84.4117 2.35208 84.6837 2.35208C84.9982 2.35208 85.2722 2.43408 85.4842 2.60858C85.7107 2.79708 85.8592 3.04108 85.9457 3.36258L85.5447 3.45908C85.4477 3.21058 85.3557 3.02458 85.2147 2.92008C85.0582 2.79708 84.8887 2.74008 84.6727 2.74008C84.4312 2.74008 84.2212 2.80608 84.0632 2.93658C83.9032 3.06558 83.7827 3.23158 83.7102 3.43658C83.6507 3.65158 83.6132 3.88658 83.6132 4.11708C83.6132 4.40008 83.6507 4.65308 83.7312 4.87058C83.8152 5.09808 83.9362 5.25308 84.1122 5.35808C84.2697 5.46308 84.4507 5.52408 84.6432 5.52408C84.8887 5.52408 85.0687 5.46308 85.2462 5.30258C85.4037 5.16258 85.5172 4.93608 85.5692 4.63558ZM86.5787 2.41658V5.85608H87.0007V2.41658H86.5787ZM87.3952 5.85608L88.6217 2.41658H89.0752L90.3797 5.85608H89.8882L89.5232 4.82258L88.1832 4.82258L87.8442 5.85608H87.3947H87.3952ZM88.3202 4.44358H89.3982L89.0597 3.48858C88.9637 3.20608 88.8822 2.95358 88.8312 2.77458C88.7912 2.98958 88.7392 3.21058 88.6587 3.43608L88.3202 4.44358ZM91.9642 5.85608V2.41658L94.1042 2.41658V2.82708H92.3757V3.88708H93.8727V4.29608H92.3757V5.85608H91.9642ZM94.7232 2.41658V5.85608H95.1422V2.41658H94.7232ZM95.8897 5.85608V2.41658H96.3057L97.9822 5.11608V2.41658L98.3912 2.41658V5.85608H97.9627L96.2852 3.15308V5.85608H95.8897ZM98.7427 5.85608L99.9737 2.41658H100.419L101.718 5.85608H101.244L100.857 4.82258H99.5352L99.1837 5.85608H98.7427ZM99.6642 4.44358H100.74L100.412 3.48858C100.305 3.20608 100.222 2.95358 100.187 2.77458C100.125 2.98958 100.087 3.21058 100.012 3.43608L99.6642 4.44358ZM102.044 5.85608V2.41658H102.483L104.144 5.11608V2.41658H104.55V5.85608H104.115L102.455 3.15308V5.85608H102.044ZM107.539 4.63558L107.949 4.76658C107.849 5.13658 107.704 5.43308 107.475 5.62008C107.238 5.81208 106.969 5.91708 106.634 5.91708C106.289 5.91708 106.012 5.83858 105.794 5.68208C105.579 5.53258 105.415 5.31508 105.312 5.03558C105.199 4.74245 105.141 4.43113 105.141 4.11708C105.141 3.74708 105.2 3.43608 105.323 3.17958C105.456 2.90908 105.628 2.70108 105.863 2.56208C106.103 2.43408 106.356 2.35208 106.647 2.35208C106.959 2.35208 107.217 2.43408 107.446 2.60858C107.661 2.79708 107.806 3.04108 107.897 3.36258L107.478 3.45908C107.394 3.21058 107.303 3.02458 107.163 2.92008C107.02 2.79708 106.851 2.74008 106.634 2.74008C106.386 2.74008 106.176 2.80608 106.018 2.93658C105.853 3.06558 105.737 3.23158 105.673 3.43658C105.605 3.65158 105.56 3.88658 105.56 4.11708C105.56 4.40008 105.605 4.65308 105.686 4.87058C105.773 5.09808 105.899 5.25308 106.064 5.35808C106.221 5.46308 106.402 5.52408 106.601 5.52408C106.84 5.52408 107.028 5.46308 107.198 5.30258C107.375 5.16258 107.475 4.93608 107.539 4.63558ZM108.536 2.41658V5.85608H108.958V2.41658H108.536ZM109.707 5.85608V2.41658L112.004 2.41658V2.82708H110.122V3.86858H111.884V4.28658H110.121V5.46308L112.084 5.46308V5.85608L109.707 5.85608ZM112.667 5.85608V2.41658H114.071C114.361 2.41658 114.569 2.44458 114.724 2.50908C114.875 2.56208 114.992 2.67458 115.077 2.82708C115.162 2.98908 115.206 3.17108 115.206 3.35408C115.206 3.60358 115.133 3.81708 114.992 3.96808C114.848 4.13808 114.622 4.24758 114.308 4.29558C114.421 4.34708 114.514 4.40058 114.563 4.46058C114.682 4.58358 114.808 4.74058 114.905 4.90958L115.462 5.85608H114.933L114.525 5.13708C114.401 4.93058 114.289 4.76708 114.208 4.66208C114.131 4.56558 114.066 4.47308 114.011 4.43458C113.951 4.39486 113.884 4.3653 113.814 4.34708C113.766 4.32108 113.686 4.32108 113.576 4.32108H113.086V5.85608H112.667ZM113.086 3.93908H113.987C114.184 3.93908 114.34 3.91108 114.437 3.86858C114.553 3.82008 114.63 3.75958 114.682 3.66358C114.736 3.56358 114.778 3.45908 114.778 3.35358C114.778 3.20608 114.724 3.05358 114.617 2.95358C114.498 2.85308 114.329 2.79708 114.095 2.79708H113.086V3.93908ZM115.526 5.85608L116.746 2.41658H117.193L118.492 5.85608H118.013L117.644 4.82258H116.313L115.975 5.85608H115.526ZM116.432 4.44358H117.522L117.174 3.48858C117.067 3.20608 117.003 2.95358 116.954 2.77458C116.911 2.98958 116.863 3.21058 116.786 3.43608L116.432 4.44358Z" fill="#1D1D1B"/>
</g>
<mask id="mask1_16878_429245" style="mask-type:alpha" maskUnits="userSpaceOnUse" x="0" y="0" width="119" height="13">
<path d="M0.419685 0.626953V12.6075L118.492 12.6075V0.626953L0.419685 0.626953Z" fill="white"/>
</mask>
<g mask="url(#mask1_16878_429245)">
<path fill-rule="evenodd" clip-rule="evenodd" d="M0.419655 0.626953V2.06895L42.6497 2.06895V0.626953L0.419655 0.626953ZM0.419655 11.162V12.6075L42.6497 12.6075V11.1625L0.419655 11.1625V11.162Z" fill="#1D1D1B"/>
</g>
</g>
<defs>
<clipPath id="clip0_16878_429245">
<rect width="118.5" height="12" fill="white" transform="translate(0.327148 0.626953)"/>
</clipPath>
</defs>
</svg>
